<?xml version="1.0" encoding="utf-8"?>
<!-- Generator: Adobe Illustrator 16.0.4, SVG Export Plug-In . SVG Version: 6.00 Build 0)  -->
<!DOCTYPE svg PUBLIC "-//W3C//DTD SVG 1.1//EN" "http://www.w3.org/Graphics/SVG/1.1/DTD/svg11.dtd">
<svg version="1.1" id="layouts_1_" xmlns="http://www.w3.org/2000/svg" xmlns:xlink="http://www.w3.org/1999/xlink" x="0px" y="0px"
	 width="560px" height="410px" viewBox="0 0 560 410" enable-background="new 0 0 560 410" xml:space="preserve">
<g id="features_layouts">
	<g id="layouts">
		<g id="elements" opacity="0.1">
			<rect id="toolbar" y="3" width="260" height="17"/>
			<rect id="logo" y="25" width="54" height="17"/>
			<rect id="menu" x="60" y="25" width="140.75" height="17"/>
			<rect id="search_2_" x="206" y="25" width="54" height="17"/>
			<g id="top-a">
				<rect y="47" width="260" height="22"/>
			</g>
			<g id="top-b">
				<rect y="74" width="260" height="22"/>
			</g>
			<g id="top-c">
				<rect y="101" width="260" height="22"/>
			</g>
			<g id="top-d">
				<rect y="128" width="260" height="22"/>
			</g>
			<rect id="sidebar-a__x28_left_x29_" y="154" width="26" height="92"/>
			<rect id="sidebar-b__x28_left_x29_" x="31" y="154" width="26" height="92"/>
			<rect id="sidebar-a__x28_right_x29_" x="234" y="154" width="26" height="92"/>
			<rect id="sidebar-b__x28_right_x29_" x="203" y="154" width="26" height="92"/>
			<g id="inner_top">
				<rect x="62" y="154" width="136" height="20"/>
			</g>
			<rect id="content" x="62" y="179" width="136" height="42"/>
			<g id="inner_bottom">
				<rect x="62" y="226" width="136" height="20"/>
			</g>
			<g id="bottom-a">
				<rect y="250" width="260" height="22"/>
			</g>
			<g id="bottom-b">
				<rect y="277" width="260" height="22"/>
			</g>
			<g id="bottom-c">
				<rect y="304" width="260" height="22"/>
			</g>
			<g id="bottom-d">
				<rect y="331" width="260" height="22"/>
			</g>
			<g id="bottom-e">
				<rect y="358" width="260" height="22"/>
			</g>
			<rect id="footer" y="385" width="260" height="17"/>
		</g>
	</g>
	<g id="widget_layouts">
		<g id="equal_bg" opacity="0.08">
			<rect x="290" y="188" width="260" height="27"/>
		</g>
		<g id="widget_2_" opacity="0.2">
			<rect x="344" y="193" width="64" height="17"/>
		</g>
		<g id="widget_1_" opacity="0.2">
			<rect x="413" y="193" width="63" height="17"/>
		</g>
		<g id="widget" opacity="0.2">
			<rect x="481" y="193" width="64" height="17"/>
		</g>
		<g id="double_bg" opacity="0.08">
			<rect x="290" y="274" width="260" height="27"/>
		</g>
		<g id="widget_4_" opacity="0.2">
			<rect x="344" y="279" width="132" height="17"/>
		</g>
		<g id="widget_3_" opacity="0.2">
			<rect x="481" y="279" width="64" height="17"/>
		</g>
		<g id="stack_bg" opacity="0.08">
			<rect x="290" y="220" width="260" height="49"/>
		</g>
		<g id="widget_5_" opacity="0.2">
			<rect x="344" y="225" width="201" height="17"/>
		</g>
		<g id="widget_6_" opacity="0.2">
			<rect x="344" y="247" width="201" height="17"/>
		</g>
	</g>
	<g id="sidebar_layouts">
		<rect id="sidebar-a_10_" x="290" y="34" opacity="0.9" enable-background="new    " width="9" height="43"/>
		<rect id="sidebar-b_5_" x="304" y="34" opacity="0.9" enable-background="new    " width="9" height="43"/>
		<rect id="content_12_" x="318" y="34" opacity="0.15" enable-background="new    " width="40" height="43"/>
		<rect id="sidebar-a_9_" x="432" y="34" opacity="0.9" enable-background="new    " width="9" height="43"/>
		<rect id="sidebar-b_4_" x="446" y="34" opacity="0.9" enable-background="new    " width="9" height="43"/>
		<rect id="content_11_" x="388" y="34" opacity="0.15" enable-background="new    " width="39" height="43"/>
		<rect id="sidebar-a_8_" x="481" y="34" opacity="0.9" enable-background="new    " width="9" height="43"/>
		<rect id="sidebar-b_3_" x="541" y="34" opacity="0.9" enable-background="new    " width="9" height="43"/>
		<rect id="content_10_" x="495" y="34" opacity="0.15" enable-background="new    " width="41" height="43"/>
		<rect id="sidebar-a_7_" x="290" y="97" opacity="0.9" enable-background="new    " width="9" height="43"/>
		<rect id="content_9_" x="304" y="97" opacity="0.15" enable-background="new    " width="53" height="43"/>
		<rect id="sidebar-a_6_" x="446" y="97" opacity="0.9" enable-background="new    " width="9" height="43"/>
		<rect id="content_8_" x="388" y="97" opacity="0.15" enable-background="new    " width="53" height="43"/>
		<rect id="content_7_" x="482" y="97" opacity="0.15" enable-background="new    " width="68" height="43"/>
	</g>
	<g id="sidebar_layouts_1_">
		<path fill="#222222" d="M296.514,20.531c0,0.817-0.297,1.454-0.89,1.911s-1.396,0.686-2.412,0.686
			c-1.101,0-1.946-0.142-2.539-0.425v-1.041c0.382,0.161,0.796,0.288,1.244,0.381s0.894,0.14,1.333,0.14
			c0.721,0,1.262-0.136,1.625-0.41c0.363-0.272,0.546-0.652,0.546-1.139c0-0.322-0.063-0.585-0.192-0.791
			c-0.129-0.205-0.346-0.395-0.646-0.568c-0.304-0.173-0.765-0.37-1.381-0.59c-0.863-0.309-1.479-0.675-1.853-1.098
			c-0.371-0.423-0.562-0.976-0.562-1.657c0-0.715,0.271-1.284,0.812-1.708c0.531-0.424,1.248-0.635,2.133-0.635
			c0.926,0,1.771,0.169,2.545,0.508l-0.336,0.939c-0.771-0.322-1.51-0.482-2.231-0.482c-0.569,0-1.021,0.123-1.34,0.368
			c-0.321,0.246-0.479,0.586-0.479,1.022c0,0.322,0.062,0.585,0.178,0.79c0.119,0.206,0.316,0.394,0.604,0.565
			c0.28,0.171,0.712,0.36,1.292,0.568c0.977,0.347,1.646,0.719,2.014,1.117C296.336,19.38,296.514,19.896,296.514,20.531z"/>
		<path fill="#222222" d="M298.163,14.158c0-0.241,0.06-0.418,0.178-0.53c0.118-0.112,0.269-0.168,0.444-0.168
			c0.169,0,0.312,0.057,0.438,0.171c0.123,0.114,0.188,0.29,0.188,0.527c0,0.237-0.062,0.414-0.188,0.53
			c-0.121,0.117-0.269,0.175-0.438,0.175c-0.178,0-0.326-0.058-0.444-0.175S298.163,14.395,298.163,14.158z M299.307,23h-1.055
			v-6.957h1.055V23z"/>
		<path fill="#222222" d="M306.275,22.067h-0.062c-0.482,0.707-1.214,1.06-2.184,1.06c-0.909,0-1.617-0.311-2.123-0.933
			c-0.508-0.622-0.76-1.506-0.76-2.653s0.256-2.038,0.764-2.672c0.508-0.634,1.214-0.952,2.119-0.952
			c0.938,0,1.668,0.343,2.172,1.028h0.082l-0.045-0.501l-0.025-0.489v-2.831h1.059V23h-0.854L306.275,22.067z M304.168,22.245
			c0.721,0,1.241-0.196,1.564-0.587c0.322-0.391,0.479-1.023,0.479-1.895v-0.222c0-0.986-0.16-1.689-0.486-2.111
			c-0.326-0.421-0.854-0.631-1.57-0.631c-0.615,0-1.09,0.24-1.418,0.72c-0.326,0.48-0.489,1.159-0.489,2.035
			c0,0.889,0.161,1.56,0.485,2.012C303.059,22.018,303.537,22.245,304.168,22.245z"/>
		<path fill="#222222" d="M312.445,23.127c-1.029,0-1.84-0.313-2.438-0.939c-0.595-0.626-0.892-1.496-0.892-2.609
			c0-1.122,0.271-2.012,0.824-2.672c0.556-0.66,1.297-0.99,2.229-0.99c0.872,0,1.562,0.287,2.068,0.86
			c0.509,0.573,0.763,1.33,0.763,2.269v0.667h-4.792c0.021,0.817,0.229,1.437,0.618,1.86c0.391,0.423,0.938,0.635,1.647,0.635
			c0.75,0,1.487-0.157,2.229-0.47v0.939c-0.373,0.161-0.729,0.276-1.062,0.346C313.314,23.092,312.914,23.127,312.445,23.127z
			 M312.159,16.798c-0.562,0-1.005,0.182-1.336,0.546c-0.332,0.364-0.528,0.868-0.587,1.511h3.637c0-0.665-0.148-1.173-0.443-1.527
			C313.133,16.975,312.709,16.798,312.159,16.798z"/>
		<path fill="#222222" d="M320.037,15.929c0.914,0,1.624,0.312,2.13,0.937c0.506,0.624,0.758,1.507,0.758,2.65
			s-0.255,2.03-0.765,2.663c-0.51,0.633-1.219,0.949-2.123,0.949c-0.453,0-0.866-0.083-1.241-0.251
			c-0.374-0.167-0.688-0.424-0.942-0.771h-0.074L317.557,23H316.8v-9.877h1.054v2.399c0,0.538-0.017,1.02-0.051,1.447h0.051
			C318.346,16.276,319.072,15.929,320.037,15.929z M319.885,16.811c-0.72,0-1.234,0.207-1.556,0.619
			c-0.315,0.413-0.478,1.108-0.478,2.085s0.162,1.677,0.482,2.098c0.325,0.421,0.854,0.631,1.564,0.631
			c0.646,0,1.133-0.236,1.441-0.708c0.317-0.472,0.479-1.15,0.479-2.035c0-0.906-0.157-1.581-0.479-2.025
			C321.038,17.032,320.549,16.811,319.885,16.811z"/>
		<path fill="#222222" d="M329.044,23l-0.21-0.99h-0.051c-0.35,0.436-0.692,0.731-1.037,0.886c-0.346,0.154-0.775,0.231-1.292,0.231
			c-0.688,0-1.229-0.178-1.622-0.533c-0.393-0.354-0.587-0.861-0.587-1.517c0-1.405,1.124-2.141,3.37-2.209l1.182-0.038v-0.432
			c0-0.546-0.117-0.949-0.354-1.209c-0.234-0.26-0.609-0.39-1.127-0.39c-0.58,0-1.234,0.178-1.969,0.533l-0.322-0.806
			c0.344-0.186,0.719-0.332,1.127-0.438c0.406-0.106,0.816-0.159,1.229-0.159c0.829,0,1.444,0.184,1.844,0.552
			c0.4,0.368,0.604,0.958,0.604,1.771V23H329.044z M326.664,22.257c0.654,0,1.171-0.18,1.545-0.54
			c0.375-0.36,0.562-0.863,0.562-1.511v-0.628l-1.062,0.044c-0.838,0.03-1.438,0.16-1.812,0.391c-0.369,0.23-0.56,0.589-0.56,1.076
			c0,0.381,0.114,0.671,0.349,0.87C325.925,22.158,326.249,22.257,326.664,22.257z"/>
		<path fill="#222222" d="M335.17,15.916c0.309,0,0.586,0.025,0.832,0.076l-0.146,0.978c-0.287-0.062-0.541-0.095-0.764-0.095
			c-0.562,0-1.044,0.229-1.441,0.686c-0.396,0.457-0.603,1.026-0.603,1.708V23h-1.054v-6.957h0.869l0.121,1.289h0.051
			c0.258-0.453,0.568-0.802,0.934-1.047C334.334,16.039,334.734,15.916,335.17,15.916z"/>
		<path fill="#222222" d="M341,23v-9.28h1.08v8.303h4.094V23H341z"/>
		<path fill="#222222" d="M351.867,23l-0.21-0.99h-0.052c-0.354,0.436-0.691,0.731-1.037,0.886
			c-0.353,0.154-0.774,0.231-1.291,0.231c-0.689,0-1.23-0.178-1.622-0.533c-0.396-0.354-0.587-0.861-0.587-1.517
			c0-1.405,1.123-2.141,3.369-2.209l1.183-0.038v-0.432c0-0.546-0.118-0.949-0.354-1.209c-0.229-0.26-0.604-0.39-1.127-0.39
			c-0.58,0-1.229,0.178-1.968,0.533l-0.323-0.806c0.348-0.186,0.723-0.332,1.127-0.438c0.407-0.106,0.817-0.159,1.229-0.159
			c0.829,0,1.442,0.184,1.844,0.552c0.402,0.368,0.604,0.958,0.604,1.771V23H351.867z M349.486,22.257
			c0.647,0,1.172-0.18,1.546-0.54c0.375-0.36,0.562-0.863,0.562-1.511v-0.628l-1.055,0.044c-0.838,0.03-1.441,0.16-1.812,0.391
			c-0.365,0.23-0.556,0.589-0.556,1.076c0,0.381,0.115,0.671,0.347,0.87C348.748,22.158,349.072,22.257,349.486,22.257z"/>
		<path fill="#222222" d="M353.715,16.043h1.131l1.522,3.967c0.334,0.906,0.542,1.56,0.622,1.961h0.051
			c0.055-0.216,0.17-0.585,0.346-1.107c0.182-0.523,0.75-2.13,1.729-4.821h1.13l-2.989,7.922c-0.297,0.783-0.643,1.338-1.038,1.666
			c-0.395,0.328-0.882,0.492-1.457,0.492c-0.316,0-0.639-0.036-0.951-0.108v-0.844c0.231,0.051,0.492,0.076,0.78,0.076
			c0.726,0,1.239-0.406,1.55-1.219l0.395-0.99L353.715,16.043z"/>
		<path fill="#222222" d="M367.375,19.515c0,1.134-0.286,2.02-0.855,2.657c-0.564,0.637-1.354,0.955-2.36,0.955
			c-0.622,0-1.183-0.146-1.657-0.438c-0.479-0.292-0.854-0.711-1.117-1.257c-0.262-0.546-0.396-1.185-0.396-1.917
			c0-1.134,0.279-2.018,0.854-2.65c0.566-0.633,1.354-0.949,2.361-0.949c0.974,0,1.744,0.324,2.312,0.971
			C367.088,17.534,367.375,18.411,367.375,19.515z M362.075,19.515c0,0.889,0.178,1.566,0.532,2.031
			c0.354,0.465,0.879,0.698,1.562,0.698c0.688,0,1.214-0.232,1.571-0.695c0.354-0.464,0.535-1.142,0.535-2.035
			c0-0.884-0.186-1.556-0.535-2.015c-0.357-0.459-0.887-0.689-1.584-0.689c-0.689,0-1.21,0.227-1.562,0.679
			C362.248,17.941,362.075,18.618,362.075,19.515z"/>
		<path fill="#222222" d="M370.212,16.043v4.513c0,0.567,0.129,0.99,0.388,1.27c0.267,0.279,0.662,0.419,1.213,0.419
			c0.729,0,1.268-0.199,1.604-0.597c0.336-0.398,0.505-1.047,0.505-1.949v-3.656h1.057V23h-0.871l-0.146-0.933h-0.062
			c-0.217,0.343-0.516,0.605-0.896,0.787s-0.819,0.273-1.312,0.273c-0.851,0-1.479-0.201-1.896-0.603s-0.632-1.045-0.632-1.93
			v-4.551H370.212z"/>
		<path fill="#222222" d="M379.448,22.257c0.187,0,0.366-0.014,0.54-0.042c0.173-0.027,0.311-0.056,0.412-0.085v0.806
			c-0.114,0.055-0.282,0.101-0.51,0.137c-0.226,0.036-0.426,0.054-0.604,0.054c-1.35,0-2.021-0.709-2.021-2.126v-4.139h-0.994
			v-0.508l0.994-0.438l0.439-1.485h0.607v1.612h2.021v0.819h-2.021v4.094c0,0.419,0.102,0.741,0.299,0.965
			C378.828,22.145,379.102,22.257,379.448,22.257z"/>
		<path fill="#222222" d="M386.277,21.102c0,0.647-0.241,1.147-0.729,1.498c-0.479,0.351-1.157,0.527-2.024,0.527
			c-0.928,0-1.646-0.146-2.156-0.438v-0.978c0.335,0.169,0.688,0.303,1.074,0.4c0.385,0.097,0.752,0.146,1.104,0.146
			c0.552,0,0.979-0.088,1.271-0.263c0.299-0.176,0.438-0.443,0.438-0.803c0-0.271-0.116-0.502-0.354-0.695
			c-0.231-0.193-0.689-0.42-1.373-0.683c-0.646-0.241-1.105-0.452-1.381-0.632c-0.271-0.18-0.479-0.384-0.606-0.612
			c-0.138-0.229-0.2-0.501-0.2-0.819c0-0.567,0.229-1.015,0.689-1.342c0.464-0.328,1.097-0.492,1.896-0.492
			c0.749,0,1.48,0.152,2.196,0.457l-0.375,0.857c-0.697-0.288-1.33-0.432-1.896-0.432c-0.498,0-0.877,0.078-1.136,0.235
			c-0.254,0.157-0.381,0.373-0.381,0.647c0,0.186,0.048,0.345,0.146,0.476c0.098,0.131,0.248,0.256,0.461,0.375
			c0.211,0.119,0.615,0.29,1.221,0.514c0.822,0.3,1.382,0.603,1.672,0.908C386.132,20.258,386.277,20.641,386.277,21.102z"/>
	</g>
	<g id="widget_layouts_1_">
		<path fill="#222222" d="M299.375,177.876h-1.066l-1.871-6.214c-0.09-0.275-0.188-0.622-0.299-1.041
			c-0.109-0.419-0.168-0.671-0.172-0.755c-0.093,0.559-0.24,1.17-0.443,1.834l-1.812,6.176h-1.062l-2.476-9.278h1.146l1.47,5.73
			c0.202,0.804,0.354,1.531,0.44,2.184c0.109-0.771,0.278-1.531,0.508-2.271l1.664-5.646h1.146l1.745,5.692
			c0.201,0.653,0.375,1.396,0.518,2.222c0.08-0.601,0.229-1.33,0.457-2.193l1.459-5.719h1.146L299.375,177.876z"/>
		<path fill="#222222" d="M303.062,169.034c0-0.241,0.061-0.418,0.179-0.53c0.118-0.111,0.267-0.168,0.442-0.168
			c0.168,0,0.312,0.059,0.438,0.171c0.123,0.114,0.186,0.29,0.186,0.527c0,0.235-0.062,0.414-0.186,0.528
			c-0.122,0.117-0.271,0.177-0.438,0.177c-0.185,0-0.324-0.06-0.442-0.177S303.062,169.271,303.062,169.034z M304.206,177.876
			h-1.054v-6.957h1.054V177.876z"/>
		<path fill="#222222" d="M311.176,176.941h-0.058c-0.486,0.707-1.214,1.062-2.187,1.062c-0.906,0-1.615-0.312-2.123-0.935
			c-0.51-0.62-0.764-1.506-0.764-2.651s0.26-2.038,0.77-2.672c0.508-0.636,1.215-0.952,2.117-0.952c0.938,0,1.668,0.344,2.174,1.027
			h0.08l-0.045-0.502l-0.022-0.487V168h1.055v9.876h-0.854L311.176,176.941z M309.068,177.121c0.72,0,1.238-0.196,1.562-0.587
			c0.324-0.392,0.485-1.023,0.485-1.896v-0.226c0-0.983-0.163-1.688-0.491-2.108c-0.328-0.424-0.854-0.634-1.571-0.634
			c-0.615,0-1.091,0.24-1.419,0.724c-0.325,0.479-0.489,1.155-0.489,2.035c0,0.889,0.162,1.56,0.486,2.012
			C307.959,176.895,308.438,177.121,309.068,177.121z"/>
		<path fill="#222222" d="M320.1,170.919v0.667l-1.285,0.15c0.115,0.146,0.229,0.344,0.314,0.582
			c0.094,0.238,0.141,0.51,0.141,0.811c0,0.682-0.229,1.227-0.693,1.631c-0.469,0.406-1.104,0.609-1.914,0.609
			c-0.207,0-0.402-0.018-0.586-0.053c-0.446,0.238-0.678,0.535-0.678,0.896c0,0.188,0.076,0.331,0.232,0.422
			c0.157,0.093,0.426,0.14,0.809,0.14h1.229c0.753,0,1.332,0.158,1.735,0.478c0.402,0.315,0.604,0.776,0.604,1.384
			c0,0.771-0.311,1.356-0.928,1.764c-0.617,0.401-1.521,0.604-2.703,0.604c-0.91,0-1.607-0.169-2.104-0.508
			c-0.492-0.342-0.737-0.817-0.737-1.438c0-0.425,0.135-0.789,0.405-1.1c0.27-0.311,0.646-0.521,1.144-0.628
			c-0.179-0.081-0.327-0.205-0.446-0.375c-0.121-0.169-0.183-0.366-0.183-0.591c0-0.256,0.063-0.478,0.203-0.666
			c0.136-0.191,0.35-0.375,0.641-0.555c-0.356-0.146-0.649-0.397-0.879-0.754c-0.228-0.354-0.34-0.765-0.34-1.222
			c0-0.762,0.229-1.351,0.687-1.761c0.457-0.413,1.104-0.619,1.942-0.619c0.362,0,0.69,0.042,0.981,0.127L320.1,170.919
			L320.1,170.919z M314.553,179.044c0,0.376,0.158,0.662,0.479,0.856c0.315,0.191,0.771,0.291,1.36,0.291
			c0.887,0,1.541-0.131,1.967-0.396c0.43-0.264,0.643-0.623,0.643-1.074c0-0.378-0.117-0.64-0.354-0.783
			c-0.229-0.146-0.672-0.222-1.312-0.222h-1.266c-0.479,0-0.854,0.114-1.114,0.345C314.688,178.289,314.553,178.617,314.553,179.044
			z M315.123,173.146c0,0.483,0.138,0.854,0.413,1.104c0.272,0.249,0.657,0.375,1.147,0.375c1.021,0,1.541-0.5,1.541-1.498
			c0-1.045-0.521-1.566-1.562-1.566c-0.495,0-0.876,0.133-1.146,0.398C315.255,172.229,315.123,172.622,315.123,173.146z"/>
		<path fill="#222222" d="M324.469,178.003c-1.027,0-1.84-0.312-2.435-0.938c-0.595-0.625-0.894-1.496-0.894-2.605
			c0-1.122,0.271-2.016,0.824-2.672c0.557-0.66,1.293-0.99,2.229-0.99c0.871,0,1.562,0.287,2.063,0.857
			c0.513,0.572,0.767,1.33,0.767,2.271v0.667h-4.791c0.021,0.817,0.228,1.438,0.615,1.86c0.395,0.423,0.938,0.635,1.648,0.635
			c0.75,0,1.488-0.154,2.229-0.47v0.938c-0.371,0.159-0.729,0.274-1.062,0.346C325.339,177.968,324.938,178.003,324.469,178.003z
			 M324.184,171.674c-0.56,0-1.004,0.184-1.336,0.547c-0.332,0.363-0.527,0.867-0.588,1.512h3.637c0-0.666-0.146-1.174-0.438-1.524
			C325.156,171.852,324.732,171.674,324.184,171.674z"/>
		<path fill="#222222" d="M331.068,177.133c0.188,0,0.365-0.014,0.541-0.042c0.173-0.026,0.311-0.056,0.41-0.085v0.807
			c-0.113,0.059-0.281,0.104-0.506,0.141c-0.228,0.033-0.428,0.054-0.604,0.054c-1.351,0-2.021-0.709-2.021-2.126v-4.143h-0.99
			v-0.508l0.996-0.438l0.438-1.482h0.607v1.609h2.021v0.816h-2.021v4.097c0,0.419,0.102,0.74,0.299,0.965
			C330.449,177.021,330.723,177.133,331.068,177.133z"/>
		<path fill="#222222" d="M336.947,177.876v-9.278h1.08v8.303h4.094v0.979L336.947,177.876L336.947,177.876z"/>
		<path fill="#222222" d="M347.814,177.876l-0.215-0.99h-0.055c-0.347,0.438-0.688,0.731-1.036,0.888
			c-0.346,0.152-0.771,0.229-1.29,0.229c-0.688,0-1.229-0.178-1.621-0.532c-0.396-0.354-0.588-0.861-0.588-1.518
			c0-1.405,1.122-2.143,3.367-2.209l1.188-0.038v-0.433c0-0.547-0.117-0.948-0.354-1.209c-0.229-0.26-0.604-0.394-1.127-0.394
			c-0.58,0-1.232,0.181-1.968,0.533l-0.324-0.81c0.347-0.187,0.722-0.332,1.127-0.438c0.408-0.104,0.817-0.158,1.229-0.158
			c0.828,0,1.438,0.186,1.846,0.553c0.396,0.369,0.602,0.959,0.602,1.771v4.75h-0.777L347.814,177.876L347.814,177.876z
			 M345.436,177.133c0.654,0,1.176-0.18,1.549-0.54c0.375-0.358,0.562-0.862,0.562-1.511v-0.628l-1.055,0.044
			c-0.84,0.029-1.441,0.16-1.812,0.393c-0.369,0.229-0.556,0.588-0.556,1.074c0,0.383,0.114,0.672,0.347,0.87
			C344.695,177.034,345.02,177.133,345.436,177.133z"/>
		<path fill="#222222" d="M349.661,170.919h1.13l1.523,3.967c0.334,0.906,0.541,1.562,0.617,1.962h0.055
			c0.056-0.217,0.171-0.586,0.347-1.104c0.176-0.521,0.75-2.133,1.724-4.821h1.135l-2.985,7.923
			c-0.297,0.782-0.646,1.34-1.038,1.665c-0.396,0.328-0.882,0.492-1.457,0.492c-0.318,0-0.643-0.036-0.952-0.104v-0.848
			c0.232,0.055,0.493,0.076,0.781,0.076c0.726,0,1.235-0.404,1.549-1.221l0.39-0.988L349.661,170.919z"/>
		<path fill="#222222" d="M363.32,174.393c0,1.133-0.285,2.021-0.855,2.655c-0.572,0.638-1.355,0.955-2.367,0.955
			c-0.623,0-1.176-0.146-1.652-0.438c-0.479-0.293-0.854-0.711-1.114-1.258c-0.271-0.547-0.396-1.186-0.396-1.916
			c0-1.136,0.281-2.02,0.854-2.647c0.562-0.636,1.354-0.949,2.354-0.949c0.979,0,1.746,0.324,2.319,0.974
			C363.034,172.41,363.32,173.287,363.32,174.393z M358.021,174.393c0,0.892,0.178,1.564,0.524,2.029
			c0.354,0.467,0.878,0.698,1.565,0.698c0.688,0,1.216-0.231,1.568-0.695c0.354-0.464,0.532-1.142,0.532-2.034
			c0-0.885-0.179-1.557-0.532-2.016c-0.353-0.459-0.89-0.688-1.584-0.688c-0.688,0-1.211,0.228-1.562,0.68
			C358.193,172.816,358.021,173.494,358.021,174.393z"/>
		<path fill="#222222" d="M366.159,170.919v4.515c0,0.565,0.129,0.988,0.387,1.271c0.259,0.277,0.663,0.419,1.213,0.419
			c0.729,0,1.261-0.199,1.603-0.599c0.339-0.396,0.508-1.047,0.508-1.947v-3.656h1.053v6.956h-0.867l-0.148-0.935h-0.062
			c-0.217,0.345-0.516,0.604-0.896,0.787c-0.389,0.184-0.818,0.271-1.312,0.271c-0.847,0-1.479-0.201-1.896-0.604
			c-0.424-0.399-0.635-1.045-0.635-1.932v-4.551h1.062L366.159,170.919L366.159,170.919z"/>
		<path fill="#222222" d="M375.396,177.133c0.187,0,0.357-0.014,0.535-0.042c0.178-0.026,0.312-0.056,0.408-0.085v0.807
			c-0.105,0.059-0.273,0.104-0.505,0.141c-0.222,0.033-0.422,0.054-0.603,0.054c-1.352,0-2.021-0.709-2.021-2.126v-4.143h-0.995
			v-0.508l0.995-0.438l0.444-1.482h0.605v1.609h2.021v0.816h-2.021v4.097c0,0.419,0.104,0.74,0.301,0.965
			C374.775,177.021,375.049,177.133,375.396,177.133z"/>
		<path fill="#222222" d="M382.227,175.979c0,0.646-0.234,1.146-0.726,1.498c-0.483,0.354-1.159,0.526-2.03,0.526
			c-0.923,0-1.643-0.146-2.158-0.438v-0.979c0.34,0.169,0.692,0.305,1.076,0.398c0.387,0.099,0.752,0.146,1.106,0.146
			c0.551,0,0.974-0.088,1.271-0.263c0.297-0.178,0.444-0.443,0.444-0.805c0-0.271-0.118-0.502-0.353-0.693
			c-0.235-0.193-0.693-0.42-1.375-0.686c-0.647-0.24-1.107-0.451-1.385-0.632c-0.271-0.182-0.479-0.386-0.604-0.612
			c-0.134-0.229-0.2-0.5-0.2-0.816c0-0.564,0.23-1.018,0.691-1.342c0.461-0.328,1.095-0.492,1.896-0.492
			c0.749,0,1.479,0.15,2.196,0.457l-0.375,0.855c-0.697-0.289-1.33-0.435-1.897-0.435c-0.497,0-0.875,0.078-1.13,0.233
			c-0.254,0.156-0.381,0.373-0.381,0.646c0,0.188,0.048,0.35,0.145,0.479c0.103,0.132,0.248,0.257,0.465,0.375
			c0.211,0.119,0.613,0.289,1.222,0.515c0.821,0.3,1.382,0.604,1.672,0.908C382.08,175.131,382.227,175.518,382.227,175.979z"/>
	</g>
	<g id="widget_text">
		<path fill="#111111" d="M300.957,200.447c0,0.65-0.223,1.15-0.666,1.501c-0.443,0.35-1.078,0.524-1.904,0.524h-0.756V205h-0.748
			v-6.425h1.666C300.154,198.575,300.957,199.199,300.957,200.447z M297.631,201.832h0.672c0.662,0,1.143-0.107,1.438-0.321
			c0.295-0.214,0.44-0.557,0.44-1.028c0-0.424-0.143-0.739-0.418-0.947s-0.714-0.312-1.304-0.312h-0.834L297.631,201.832
			L297.631,201.832z"/>
		<path fill="#111111" d="M306.34,205l-0.8-2.043h-2.575L302.174,205h-0.756l2.54-6.451h0.628l2.527,6.451H306.34z M305.307,202.284
			l-0.746-1.991c-0.098-0.251-0.191-0.561-0.299-0.927c-0.062,0.28-0.154,0.591-0.275,0.927l-0.758,1.991H305.307z"/>
		<path fill="#111111" d="M308.744,202.328V205h-0.748v-6.425h1.763c0.788,0,1.37,0.151,1.747,0.452
			c0.376,0.303,0.564,0.756,0.564,1.363c0,0.85-0.434,1.424-1.293,1.723l1.746,2.887h-0.887l-1.559-2.672H308.744z M308.744,201.688
			h1.021c0.523,0,0.914-0.104,1.156-0.313c0.246-0.209,0.369-0.522,0.369-0.94c0-0.427-0.125-0.73-0.376-0.918
			c-0.25-0.188-0.649-0.281-1.206-0.281h-0.973L308.744,201.688L308.744,201.688z"/>
		<path fill="#111111" d="M317.6,205l-0.8-2.043h-2.575L313.434,205h-0.756l2.54-6.451h0.628l2.527,6.451H317.6z M316.566,202.284
			l-0.746-1.991c-0.1-0.251-0.197-0.561-0.299-0.927c-0.065,0.28-0.158,0.591-0.277,0.927l-0.756,1.991H316.566z"/>
		<path fill="#111111" d="M319.256,205v-6.425h0.748v5.748h2.834V205H319.256z"/>
		<path fill="#111111" d="M327.509,205h-3.582v-6.425h3.582v0.663h-2.834v2.07h2.662v0.657h-2.662v2.364h2.834V205z"/>
		<path fill="#111111" d="M328.932,205v-6.425h0.748v5.748h2.834V205H328.932z"/>
		<path fill="#111111" d="M333.604,205v-6.425h0.748v5.748h2.834V205H333.604z"/>
		<path fill="#111111" d="M300.509,246.091c0,0.565-0.204,1.007-0.614,1.322c-0.408,0.315-0.968,0.476-1.67,0.476
			c-0.763,0-1.349-0.099-1.759-0.296v-0.721c0.265,0.112,0.552,0.2,0.861,0.265c0.312,0.064,0.618,0.098,0.923,0.098
			c0.498,0,0.873-0.096,1.125-0.28s0.378-0.451,0.378-0.788c0-0.227-0.045-0.404-0.134-0.548c-0.09-0.146-0.239-0.271-0.448-0.396
			c-0.21-0.119-0.528-0.258-0.956-0.408c-0.598-0.215-1.023-0.467-1.281-0.76c-0.256-0.295-0.385-0.678-0.385-1.146
			c0-0.495,0.188-0.893,0.559-1.186c0.373-0.293,0.865-0.438,1.479-0.438c0.64,0,1.228,0.113,1.763,0.354l-0.229,0.647
			c-0.53-0.226-1.049-0.334-1.549-0.334c-0.396,0-0.703,0.086-0.93,0.256c-0.225,0.17-0.332,0.403-0.332,0.707
			c0,0.226,0.039,0.401,0.121,0.547c0.081,0.146,0.223,0.271,0.415,0.396c0.193,0.117,0.491,0.25,0.896,0.395
			c0.673,0.24,1.137,0.498,1.391,0.771C300.382,245.294,300.509,245.65,300.509,246.091z"/>
		<path fill="#111111" d="M303.801,247.8h-0.748v-5.762h-2.033v-0.663h4.815v0.663h-2.034V247.8L303.801,247.8z"/>
		<path fill="#111111" d="M310.84,247.8l-0.8-2.043h-2.575l-0.791,2.043h-0.756l2.54-6.45h0.628l2.527,6.45H310.84z
			 M309.807,245.084l-0.746-1.991c-0.098-0.251-0.191-0.561-0.299-0.927c-0.062,0.281-0.154,0.591-0.275,0.927l-0.758,1.991H309.807
			z"/>
		<path fill="#111111" d="M315.248,241.95c-0.707,0-1.264,0.235-1.673,0.706c-0.408,0.47-0.612,1.113-0.612,1.931
			c0,0.843,0.196,1.491,0.592,1.949c0.396,0.459,0.955,0.688,1.688,0.688c0.444,0,0.96-0.08,1.532-0.242v0.656
			c-0.443,0.166-0.996,0.25-1.646,0.25c-0.943,0-1.677-0.287-2.188-0.861c-0.518-0.574-0.771-1.395-0.771-2.447
			c0-0.662,0.124-1.242,0.372-1.74c0.247-0.498,0.604-0.882,1.071-1.152c0.468-0.269,1.018-0.399,1.646-0.399
			c0.677,0,1.265,0.123,1.771,0.364l-0.315,0.646C316.221,242.064,315.732,241.95,315.248,241.95z"/>
		<path fill="#111111" d="M322.814,247.8h-0.881l-2.346-3.114l-0.672,0.602v2.52h-0.748v-6.427h0.748v3.188l2.913-3.188h0.884
			l-2.584,2.79L322.814,247.8z"/>
		<path fill="#111111" d="M327.279,247.8h-3.581v-6.425h3.581v0.663h-2.834v2.069h2.662v0.66h-2.662v2.359h2.834V247.8z"/>
		<path fill="#111111" d="M333.832,244.525c0,1.062-0.288,1.871-0.863,2.433c-0.576,0.562-1.402,0.842-2.482,0.842h-1.777v-6.425
			h1.969c0.999,0,1.775,0.275,2.33,0.831C333.555,242.759,333.832,243.532,333.832,244.525z M333.041,244.552
			c0-0.837-0.21-1.469-0.631-1.894c-0.42-0.426-1.045-0.639-1.874-0.639h-1.085v5.133h0.908c0.892,0,1.561-0.219,2.01-0.655
			C332.816,246.059,333.041,245.411,333.041,244.552z"/>
		<path fill="#111111" d="M302.012,287.326c0,1.061-0.287,1.871-0.861,2.432c-0.572,0.562-1.4,0.842-2.481,0.842h-1.776v-6.425
			h1.969c0.998,0,1.771,0.276,2.33,0.831C301.734,285.559,302.012,286.332,302.012,287.326z M301.221,287.352
			c0-0.836-0.209-1.469-0.631-1.894c-0.42-0.425-1.045-0.638-1.874-0.638h-1.085v5.133h0.909c0.892,0,1.56-0.219,2.009-0.656
			C300.996,288.857,301.221,288.211,301.221,287.352z"/>
		<path fill="#111111" d="M309.021,287.379c0,1.027-0.266,1.836-0.78,2.426c-0.521,0.588-1.243,0.883-2.168,0.883
			c-0.947,0-1.677-0.289-2.191-0.867c-0.514-0.573-0.771-1.396-0.771-2.445c0-1.045,0.258-1.854,0.771-2.438
			c0.519-0.576,1.248-0.857,2.197-0.857c0.924,0,1.646,0.293,2.162,0.879C308.762,285.539,309.021,286.348,309.021,287.379z
			 M303.9,287.379c0,0.869,0.186,1.529,0.557,1.979c0.37,0.449,0.908,0.681,1.615,0.681c0.711,0,1.248-0.229,1.609-0.679
			c0.36-0.442,0.545-1.104,0.545-1.979c0-0.861-0.184-1.521-0.543-1.967c-0.358-0.447-0.896-0.67-1.604-0.67
			c-0.711,0-1.253,0.225-1.623,0.674C304.086,285.866,303.9,286.521,303.9,287.379z"/>
		<path fill="#111111" d="M315.305,284.175v4.157c0,0.732-0.221,1.309-0.662,1.727c-0.438,0.42-1.051,0.629-1.822,0.629
			c-0.771,0-1.368-0.211-1.795-0.633c-0.426-0.422-0.637-1.002-0.637-1.74v-4.14h0.746v4.192c0,0.535,0.146,0.947,0.439,1.234
			s0.724,0.432,1.292,0.432c0.542,0,0.959-0.145,1.253-0.434c0.292-0.289,0.438-0.703,0.438-1.242v-4.188L315.305,284.175
			L315.305,284.175z"/>
		<path fill="#111111" d="M317.006,284.175h1.814c0.854,0,1.47,0.128,1.852,0.382c0.381,0.256,0.57,0.658,0.57,1.209
			c0,0.381-0.105,0.695-0.318,0.942c-0.212,0.248-0.521,0.408-0.93,0.481v0.043c0.977,0.168,1.464,0.681,1.464,1.539
			c0,0.568-0.194,1.021-0.582,1.345c-0.39,0.321-0.933,0.483-1.628,0.483h-2.242V284.175L317.006,284.175z M317.754,286.926h1.23
			c0.521,0,0.904-0.083,1.138-0.248c0.229-0.166,0.347-0.443,0.347-0.838c0-0.359-0.129-0.619-0.387-0.779s-0.668-0.24-1.23-0.24
			h-1.098V286.926z M317.754,287.559v2.404h1.34c0.521,0,0.909-0.102,1.172-0.302c0.264-0.2,0.396-0.515,0.396-0.942
			c0-0.398-0.135-0.691-0.402-0.879c-0.267-0.188-0.676-0.281-1.224-0.281H317.754z"/>
		<path fill="#111111" d="M322.837,290.6v-6.425h0.748v5.748h2.834v0.677H322.837z"/>
		<path fill="#111111" d="M331.09,290.6h-3.582v-6.425h3.582v0.663h-2.834v2.07h2.662v0.658h-2.662v2.365h2.834V290.6z"/>
		<path fill="#111111" d="M337.643,287.326c0,1.061-0.285,1.871-0.857,2.432c-0.576,0.562-1.404,0.842-2.485,0.842h-1.776v-6.425
			h1.971c0.998,0,1.773,0.276,2.33,0.831C337.365,285.559,337.643,286.332,337.643,287.326z M336.852,287.352
			c0-0.836-0.209-1.469-0.631-1.894c-0.42-0.425-1.045-0.638-1.873-0.638h-1.086v5.133h0.909c0.892,0,1.562-0.219,2.009-0.656
			C336.627,288.857,336.852,288.211,336.852,287.352z"/>
	</g>
</g>
<g id="text">
	<g>
		<path fill="#111111" d="M13.149,36.503v-7.139h0.83v6.387h3.149v0.752H13.149z"/>
		<path fill="#111111" d="M24.536,32.924c0,1.143-0.289,2.041-0.867,2.695c-0.578,0.654-1.381,0.981-2.41,0.981
			c-1.051,0-1.863-0.321-2.434-0.964c-0.571-0.643-0.857-1.55-0.857-2.722c0-1.162,0.287-2.063,0.859-2.703
			c0.572-0.64,1.387-0.959,2.441-0.959c1.025,0,1.826,0.326,2.402,0.977S24.536,31.778,24.536,32.924z M18.847,32.924
			c0,0.967,0.206,1.7,0.618,2.2c0.412,0.5,1.01,0.75,1.794,0.75c0.791,0,1.388-0.249,1.792-0.747
			c0.404-0.498,0.605-1.232,0.605-2.202c0-0.96-0.201-1.688-0.603-2.185c-0.402-0.497-0.997-0.745-1.785-0.745
			c-0.791,0-1.393,0.25-1.804,0.75C19.053,31.245,18.847,31.97,18.847,32.924z"/>
		<path fill="#111111" d="M29.267,32.763h2.427v3.472c-0.377,0.121-0.762,0.211-1.152,0.273s-0.843,0.093-1.357,0.093
			c-1.081,0-1.922-0.321-2.524-0.964c-0.602-0.643-0.903-1.544-0.903-2.703c0-0.742,0.149-1.393,0.447-1.951
			s0.727-0.985,1.287-1.279c0.56-0.294,1.216-0.442,1.968-0.442c0.762,0,1.471,0.14,2.129,0.42l-0.322,0.732
			c-0.645-0.273-1.265-0.41-1.86-0.41c-0.869,0-1.548,0.259-2.036,0.776c-0.488,0.517-0.732,1.235-0.732,2.153
			c0,0.963,0.235,1.694,0.706,2.192c0.471,0.498,1.161,0.747,2.073,0.747c0.495,0,0.978-0.057,1.45-0.171v-2.197h-1.597v-0.741
			H29.267z"/>
		<path fill="#111111" d="M39.604,32.924c0,1.143-0.289,2.041-0.867,2.695c-0.578,0.654-1.381,0.981-2.41,0.981
			c-1.051,0-1.863-0.321-2.434-0.964c-0.571-0.643-0.857-1.55-0.857-2.722c0-1.162,0.287-2.063,0.859-2.703s1.387-0.959,2.441-0.959
			c1.025,0,1.826,0.326,2.402,0.977C39.314,30.88,39.604,31.778,39.604,32.924z M33.916,32.924c0,0.967,0.206,1.7,0.618,2.2
			c0.412,0.5,1.01,0.75,1.794,0.75c0.791,0,1.388-0.249,1.792-0.747c0.404-0.498,0.605-1.232,0.605-2.202
			c0-0.96-0.201-1.688-0.603-2.185c-0.402-0.497-0.997-0.745-1.785-0.745c-0.791,0-1.393,0.25-1.804,0.75
			C34.122,31.245,33.916,31.97,33.916,32.924z"/>
	</g>
	<g>
		<path fill="#111111" d="M119.308,36.503l-2.422-6.328h-0.039c0.045,0.501,0.068,1.097,0.068,1.787v4.541h-0.767v-7.139h1.25
			l2.261,5.889h0.039l2.28-5.889h1.24v7.139h-0.83v-4.6c0-0.527,0.023-1.1,0.068-1.719h-0.039l-2.441,6.318L119.308,36.503
			L119.308,36.503z"/>
		<path fill="#111111" d="M129.157,36.503h-3.979v-7.139h3.979v0.737h-3.149v2.3h2.959v0.732h-2.959v2.627h3.149V36.503z"/>
		<path fill="#111111" d="M136.315,36.503h-0.947l-3.901-5.991h-0.039c0.052,0.703,0.078,1.348,0.078,1.934v4.058h-0.767v-7.139
			h0.938l3.892,5.967h0.039c-0.006-0.088-0.021-0.37-0.044-0.847s-0.031-0.818-0.024-1.023v-4.097h0.776L136.315,36.503
			L136.315,36.503z"/>
		<path fill="#111111" d="M143.668,29.364v4.619c0,0.814-0.246,1.454-0.737,1.919c-0.491,0.465-1.167,0.698-2.026,0.698
			c-0.859,0-1.524-0.234-1.995-0.703c-0.471-0.469-0.706-1.113-0.706-1.934v-4.6h0.83v4.658c0,0.596,0.163,1.053,0.488,1.372
			s0.804,0.479,1.436,0.479c0.602,0,1.066-0.16,1.392-0.481c0.326-0.321,0.488-0.78,0.488-1.379v-4.648H143.668z"/>
	</g>
	<g>
		<path fill="#111111" d="M219.177,34.604c0,0.628-0.228,1.118-0.684,1.47c-0.456,0.352-1.074,0.527-1.855,0.527
			c-0.846,0-1.498-0.109-1.953-0.327v-0.801c0.293,0.124,0.612,0.221,0.957,0.293c0.345,0.072,0.687,0.107,1.025,0.107
			c0.553,0,0.97-0.105,1.25-0.315s0.42-0.502,0.42-0.876c0-0.248-0.05-0.45-0.149-0.608c-0.099-0.158-0.265-0.304-0.498-0.437
			c-0.233-0.133-0.587-0.285-1.062-0.454c-0.664-0.238-1.139-0.519-1.423-0.845c-0.284-0.326-0.427-0.75-0.427-1.274
			c0-0.55,0.207-0.988,0.62-1.313s0.96-0.488,1.641-0.488c0.709,0,1.362,0.13,1.958,0.391l-0.259,0.723
			c-0.589-0.248-1.162-0.371-1.719-0.371c-0.439,0-0.783,0.094-1.03,0.283c-0.247,0.189-0.371,0.451-0.371,0.786
			c0,0.248,0.045,0.45,0.137,0.608c0.092,0.158,0.245,0.303,0.461,0.435c0.216,0.132,0.548,0.277,0.994,0.437
			c0.749,0.267,1.264,0.553,1.545,0.859C219.036,33.72,219.177,34.115,219.177,34.604z"/>
		<path fill="#111111" d="M224.617,36.503h-3.979v-7.139h3.979v0.737h-3.149v2.3h2.959v0.732h-2.959v2.627h3.149V36.503z"/>
		<path fill="#111111" d="M230.686,36.503l-0.889-2.271h-2.861l-0.879,2.271h-0.84l2.822-7.168h0.698l2.808,7.168H230.686z
			 M229.539,33.485l-0.83-2.212c-0.107-0.28-0.218-0.624-0.332-1.03c-0.072,0.312-0.174,0.656-0.308,1.03l-0.84,2.212H229.539z"/>
		<path fill="#111111" d="M233.357,33.534v2.969h-0.83v-7.139h1.958c0.875,0,1.522,0.167,1.941,0.503s0.627,0.84,0.627,1.514
			c0,0.944-0.479,1.582-1.436,1.914l1.938,3.208h-0.981l-1.729-2.969H233.357z M233.357,32.821h1.138
			c0.586,0,1.016-0.116,1.289-0.349s0.41-0.582,0.41-1.047c0-0.472-0.139-0.812-0.417-1.021c-0.278-0.209-0.725-0.312-1.34-0.312
			h-1.079L233.357,32.821L233.357,32.821z"/>
		<path fill="#111111" d="M241.765,30.004c-0.785,0-1.404,0.261-1.858,0.784c-0.454,0.523-0.681,1.238-0.681,2.146
			c0,0.934,0.219,1.656,0.657,2.166c0.438,0.51,1.062,0.764,1.873,0.764c0.498,0,1.066-0.089,1.704-0.269v0.728
			c-0.495,0.186-1.105,0.278-1.831,0.278c-1.051,0-1.863-0.319-2.434-0.957c-0.571-0.638-0.857-1.544-0.857-2.72
			c0-0.736,0.138-1.38,0.413-1.934c0.275-0.554,0.672-0.98,1.191-1.279s1.13-0.449,1.833-0.449c0.749,0,1.403,0.137,1.963,0.41
			l-0.352,0.713C242.846,30.131,242.306,30.004,241.765,30.004z"/>
		<path fill="#111111" d="M250.437,36.503h-0.83v-3.359h-3.76v3.359h-0.83v-7.139h0.83v3.037h3.76v-3.037h0.83V36.503z"/>
	</g>
	<g>
		<path fill="#111111" d="M119.346,61.503h-0.83v-6.401h-2.261v-0.737h5.352v0.737h-2.261V61.503L119.346,61.503z"/>
		<path fill="#111111" d="M128.877,57.924c0,1.143-0.289,2.041-0.867,2.695c-0.578,0.654-1.381,0.981-2.41,0.981
			c-1.051,0-1.863-0.321-2.434-0.964c-0.571-0.643-0.857-1.55-0.857-2.722c0-1.162,0.287-2.063,0.859-2.703
			c0.572-0.64,1.387-0.959,2.441-0.959c1.025,0,1.826,0.326,2.402,0.977C128.587,55.88,128.877,56.778,128.877,57.924z
			 M123.189,57.924c0,0.967,0.206,1.7,0.618,2.2c0.412,0.5,1.01,0.75,1.794,0.75c0.791,0,1.388-0.249,1.792-0.747
			c0.404-0.498,0.605-1.232,0.605-2.202c0-0.96-0.201-1.688-0.603-2.185c-0.402-0.497-0.997-0.745-1.785-0.745
			c-0.791,0-1.393,0.25-1.804,0.75C123.395,56.245,123.189,56.97,123.189,57.924z"/>
		<path fill="#111111" d="M134.996,56.444c0,0.723-0.247,1.278-0.74,1.667c-0.493,0.389-1.199,0.583-2.117,0.583h-0.84v2.808h-0.83
			v-7.139h1.851C134.104,54.364,134.996,55.058,134.996,56.444z M131.299,57.982h0.747c0.736,0,1.268-0.119,1.597-0.356
			s0.493-0.619,0.493-1.143c0-0.472-0.155-0.824-0.464-1.055c-0.309-0.231-0.791-0.347-1.445-0.347h-0.928V57.982L131.299,57.982z"
			/>
		<path fill="#111111" d="M135.918,59.193v-0.742h2.397v0.742H135.918z"/>
		<path fill="#111111" d="M144.195,61.503l-0.889-2.271h-2.861l-0.879,2.271h-0.84l2.822-7.168h0.698l2.808,7.168H144.195z
			 M143.047,58.485l-0.83-2.212c-0.107-0.28-0.218-0.624-0.332-1.03c-0.072,0.312-0.174,0.656-0.308,1.03l-0.84,2.212H143.047z"/>
	</g>
	<g>
		<path fill="#111111" d="M119.346,88.503h-0.83v-6.401h-2.261v-0.737h5.352v0.737h-2.261V88.503L119.346,88.503z"/>
		<path fill="#111111" d="M128.877,84.924c0,1.143-0.289,2.041-0.867,2.695c-0.578,0.654-1.381,0.981-2.41,0.981
			c-1.051,0-1.863-0.321-2.434-0.964c-0.571-0.643-0.857-1.55-0.857-2.722c0-1.162,0.287-2.063,0.859-2.703
			c0.572-0.64,1.387-0.959,2.441-0.959c1.025,0,1.826,0.326,2.402,0.977C128.587,82.88,128.877,83.778,128.877,84.924z
			 M123.189,84.924c0,0.967,0.206,1.7,0.618,2.2c0.412,0.5,1.01,0.75,1.794,0.75c0.791,0,1.388-0.249,1.792-0.747
			c0.404-0.498,0.605-1.232,0.605-2.202c0-0.96-0.201-1.688-0.603-2.185c-0.402-0.497-0.997-0.745-1.785-0.745
			c-0.791,0-1.393,0.25-1.804,0.75C123.395,83.245,123.189,83.97,123.189,84.924z"/>
		<path fill="#111111" d="M134.996,83.444c0,0.723-0.247,1.278-0.74,1.667c-0.493,0.389-1.199,0.583-2.117,0.583h-0.84v2.808h-0.83
			v-7.139h1.851C134.104,81.364,134.996,82.058,134.996,83.444z M131.299,84.982h0.747c0.736,0,1.268-0.119,1.597-0.356
			s0.493-0.619,0.493-1.143c0-0.472-0.155-0.824-0.464-1.055c-0.309-0.231-0.791-0.347-1.445-0.347h-0.928V84.982L131.299,84.982z"
			/>
		<path fill="#111111" d="M135.918,86.193v-0.742h2.397v0.742H135.918z"/>
		<path fill="#111111" d="M139.708,81.364h2.017c0.947,0,1.632,0.142,2.056,0.425c0.424,0.283,0.635,0.731,0.635,1.343
			c0,0.423-0.118,0.772-0.354,1.047c-0.236,0.275-0.58,0.453-1.033,0.535v0.049c1.084,0.186,1.626,0.755,1.626,1.709
			c0,0.638-0.216,1.136-0.647,1.494c-0.431,0.358-1.034,0.537-1.809,0.537h-2.49L139.708,81.364L139.708,81.364z M140.538,84.421
			h1.367c0.586,0,1.007-0.092,1.265-0.276c0.258-0.184,0.386-0.494,0.386-0.93c0-0.4-0.143-0.689-0.43-0.867
			c-0.287-0.178-0.742-0.266-1.367-0.266h-1.221V84.421L140.538,84.421z M140.538,85.124v2.671h1.489
			c0.576,0,1.01-0.111,1.301-0.334s0.437-0.572,0.437-1.047c0-0.443-0.149-0.768-0.447-0.977c-0.298-0.209-0.751-0.312-1.36-0.312
			L140.538,85.124L140.538,85.124z"/>
	</g>
	<g>
		<path fill="#111111" d="M119.346,115.503h-0.83v-6.401h-2.261v-0.737h5.352v0.737h-2.261V115.503L119.346,115.503z"/>
		<path fill="#111111" d="M128.877,111.924c0,1.143-0.289,2.041-0.867,2.695c-0.578,0.654-1.381,0.981-2.41,0.981
			c-1.051,0-1.863-0.321-2.434-0.964c-0.571-0.643-0.857-1.55-0.857-2.722c0-1.162,0.287-2.063,0.859-2.703
			c0.572-0.64,1.387-0.959,2.441-0.959c1.025,0,1.826,0.326,2.402,0.977C128.587,109.88,128.877,110.778,128.877,111.924z
			 M123.189,111.924c0,0.967,0.206,1.7,0.618,2.2c0.412,0.5,1.01,0.75,1.794,0.75c0.791,0,1.388-0.249,1.792-0.747
			c0.404-0.498,0.605-1.232,0.605-2.202c0-0.96-0.201-1.688-0.603-2.185c-0.402-0.497-0.997-0.745-1.785-0.745
			c-0.791,0-1.393,0.25-1.804,0.75C123.395,110.245,123.189,110.97,123.189,111.924z"/>
		<path fill="#111111" d="M134.996,110.444c0,0.723-0.247,1.278-0.74,1.667c-0.493,0.389-1.199,0.583-2.117,0.583h-0.84v2.808h-0.83
			v-7.139h1.851C134.104,108.364,134.996,109.058,134.996,110.444z M131.299,111.982h0.747c0.736,0,1.268-0.119,1.597-0.356
			s0.493-0.619,0.493-1.143c0-0.472-0.155-0.824-0.464-1.055c-0.309-0.231-0.791-0.347-1.445-0.347h-0.928V111.982L131.299,111.982z
			"/>
		<path fill="#111111" d="M135.918,113.193v-0.742h2.397v0.742H135.918z"/>
		<path fill="#111111" d="M142.764,109.004c-0.785,0-1.404,0.261-1.858,0.784c-0.454,0.523-0.681,1.238-0.681,2.146
			c0,0.934,0.219,1.656,0.657,2.166c0.438,0.51,1.062,0.764,1.873,0.764c0.498,0,1.066-0.089,1.704-0.269v0.728
			c-0.495,0.186-1.105,0.278-1.831,0.278c-1.051,0-1.863-0.319-2.434-0.957c-0.571-0.638-0.857-1.544-0.857-2.72
			c0-0.736,0.138-1.38,0.413-1.934c0.275-0.554,0.672-0.98,1.191-1.279s1.13-0.449,1.833-0.449c0.749,0,1.403,0.137,1.963,0.41
			l-0.352,0.713C143.845,109.131,143.305,109.004,142.764,109.004z"/>
	</g>
	<g>
		<path fill="#111111" d="M119.346,142.503h-0.83v-6.401h-2.261v-0.737h5.352v0.737h-2.261V142.503L119.346,142.503z"/>
		<path fill="#111111" d="M128.877,138.924c0,1.143-0.289,2.041-0.867,2.695c-0.578,0.654-1.381,0.981-2.41,0.981
			c-1.051,0-1.863-0.321-2.434-0.964c-0.571-0.643-0.857-1.55-0.857-2.722c0-1.162,0.287-2.063,0.859-2.703
			c0.572-0.64,1.387-0.959,2.441-0.959c1.025,0,1.826,0.326,2.402,0.977C128.587,136.88,128.877,137.778,128.877,138.924z
			 M123.189,138.924c0,0.967,0.206,1.7,0.618,2.2c0.412,0.5,1.01,0.75,1.794,0.75c0.791,0,1.388-0.249,1.792-0.747
			c0.404-0.498,0.605-1.232,0.605-2.202c0-0.96-0.201-1.688-0.603-2.185c-0.402-0.497-0.997-0.745-1.785-0.745
			c-0.791,0-1.393,0.25-1.804,0.75C123.395,137.245,123.189,137.97,123.189,138.924z"/>
		<path fill="#111111" d="M134.996,137.444c0,0.723-0.247,1.278-0.74,1.667c-0.493,0.389-1.199,0.583-2.117,0.583h-0.84v2.808h-0.83
			v-7.139h1.851C134.104,135.364,134.996,136.058,134.996,137.444z M131.299,138.982h0.747c0.736,0,1.268-0.119,1.597-0.356
			s0.493-0.619,0.493-1.143c0-0.472-0.155-0.824-0.464-1.055c-0.309-0.231-0.791-0.347-1.445-0.347h-0.928V138.982L131.299,138.982z
			"/>
		<path fill="#111111" d="M135.918,140.193v-0.742h2.397v0.742H135.918z"/>
		<path fill="#111111" d="M145.406,138.865c0,1.178-0.32,2.079-0.959,2.703c-0.639,0.624-1.56,0.935-2.761,0.935h-1.978v-7.139
			h2.188c1.11,0,1.973,0.308,2.588,0.923C145.099,136.902,145.406,137.762,145.406,138.865z M144.527,138.895
			c0-0.931-0.233-1.632-0.701-2.104c-0.468-0.472-1.161-0.708-2.083-0.708h-1.206v5.703h1.011c0.99,0,1.733-0.243,2.231-0.73
			C144.277,140.569,144.527,139.848,144.527,138.895z"/>
	</g>
	<g>
		<path fill="#111111" d="M111.308,167.503l-2.422-6.328h-0.039c0.045,0.501,0.068,1.097,0.068,1.787v4.541h-0.767v-7.139h1.25
			l2.261,5.889h0.039l2.28-5.889h1.24v7.139h-0.83v-4.6c0-0.527,0.023-1.1,0.068-1.719h-0.039l-2.441,6.318L111.308,167.503
			L111.308,167.503z"/>
		<path fill="#111111" d="M121.665,167.503l-0.889-2.271h-2.861l-0.879,2.271h-0.84l2.822-7.168h0.698l2.808,7.168H121.665z
			 M120.517,164.485l-0.83-2.212c-0.107-0.28-0.218-0.624-0.332-1.03c-0.072,0.312-0.174,0.656-0.308,1.03l-0.84,2.212H120.517z"/>
		<path fill="#111111" d="M123.505,167.503v-7.139h0.83v7.139H123.505L123.505,167.503z"/>
		<path fill="#111111" d="M131.87,167.503h-0.947l-3.901-5.991h-0.039c0.052,0.703,0.078,1.348,0.078,1.934v4.058h-0.767v-7.139
			h0.938l3.892,5.967h0.039c-0.006-0.088-0.021-0.37-0.044-0.847s-0.031-0.818-0.024-1.023v-4.097h0.776L131.87,167.503
			L131.87,167.503z"/>
		<path fill="#111111" d="M133.261,165.193v-0.742h2.397v0.742H133.261z"/>
		<path fill="#111111" d="M139.248,167.503h-0.83v-6.401h-2.261v-0.737h5.352v0.737h-2.261V167.503z"/>
		<path fill="#111111" d="M148.779,163.924c0,1.143-0.289,2.041-0.867,2.695c-0.578,0.654-1.381,0.981-2.41,0.981
			c-1.051,0-1.863-0.321-2.434-0.964c-0.571-0.643-0.857-1.55-0.857-2.722c0-1.162,0.287-2.063,0.859-2.703
			c0.572-0.64,1.387-0.959,2.441-0.959c1.025,0,1.826,0.326,2.402,0.977C148.489,161.88,148.779,162.778,148.779,163.924z
			 M143.09,163.924c0,0.967,0.206,1.7,0.618,2.2s1.01,0.75,1.794,0.75c0.791,0,1.388-0.249,1.792-0.747
			c0.404-0.498,0.605-1.232,0.605-2.202c0-0.96-0.201-1.688-0.603-2.185c-0.402-0.497-0.997-0.745-1.785-0.745
			c-0.791,0-1.393,0.25-1.804,0.75S143.09,162.97,143.09,163.924z"/>
		<path fill="#111111" d="M154.897,162.444c0,0.723-0.247,1.278-0.74,1.667c-0.493,0.389-1.199,0.583-2.117,0.583h-0.84v2.808h-0.83
			v-7.139h1.851C154.005,160.364,154.897,161.058,154.897,162.444z M151.201,163.982h0.747c0.736,0,1.268-0.119,1.597-0.356
			s0.493-0.619,0.493-1.143c0-0.472-0.155-0.824-0.464-1.055c-0.309-0.231-0.791-0.347-1.445-0.347h-0.928V163.982L151.201,163.982z
			"/>
	</g>
	<g>
		<path fill="#111111" d="M112.206,197.004c-0.785,0-1.404,0.261-1.858,0.784c-0.454,0.523-0.681,1.238-0.681,2.146
			c0,0.934,0.219,1.656,0.657,2.166c0.438,0.51,1.062,0.764,1.873,0.764c0.498,0,1.066-0.089,1.704-0.269v0.728
			c-0.495,0.186-1.105,0.278-1.831,0.278c-1.051,0-1.863-0.319-2.434-0.957c-0.571-0.638-0.857-1.544-0.857-2.72
			c0-0.736,0.138-1.38,0.413-1.934c0.275-0.554,0.672-0.98,1.191-1.279s1.13-0.449,1.833-0.449c0.749,0,1.403,0.137,1.963,0.41
			l-0.352,0.713C113.286,197.131,112.746,197.004,112.206,197.004z"/>
		<path fill="#111111" d="M121.654,199.924c0,1.143-0.289,2.041-0.867,2.695c-0.578,0.654-1.381,0.981-2.41,0.981
			c-1.051,0-1.863-0.321-2.434-0.964c-0.571-0.643-0.857-1.55-0.857-2.722c0-1.162,0.287-2.063,0.859-2.703
			c0.572-0.64,1.387-0.959,2.441-0.959c1.025,0,1.826,0.326,2.402,0.977S121.654,198.778,121.654,199.924z M115.965,199.924
			c0,0.967,0.206,1.7,0.618,2.2s1.01,0.75,1.794,0.75c0.791,0,1.388-0.249,1.792-0.747c0.404-0.498,0.605-1.232,0.605-2.202
			c0-0.96-0.201-1.688-0.603-2.185c-0.402-0.497-0.997-0.745-1.785-0.745c-0.791,0-1.393,0.25-1.804,0.75
			S115.965,198.97,115.965,199.924z"/>
		<path fill="#111111" d="M128.822,203.503h-0.947l-3.901-5.991h-0.039c0.052,0.703,0.078,1.348,0.078,1.934v4.058h-0.767v-7.139
			h0.938l3.892,5.967h0.039c-0.006-0.088-0.021-0.37-0.044-0.847c-0.023-0.477-0.031-0.818-0.024-1.023v-4.097h0.776v7.138H128.822z
			"/>
		<path fill="#111111" d="M132.982,203.503h-0.83v-6.401h-2.261v-0.737h5.352v0.737h-2.261V203.503z"/>
		<path fill="#111111" d="M140.296,203.503h-3.979v-7.139h3.979v0.737h-3.149v2.3h2.959v0.732h-2.959v2.627h3.149V203.503z"/>
		<path fill="#111111" d="M147.455,203.503h-0.947l-3.901-5.991h-0.039c0.052,0.703,0.078,1.348,0.078,1.934v4.058h-0.767v-7.139
			h0.938l3.892,5.967h0.039c-0.006-0.088-0.021-0.37-0.044-0.847s-0.031-0.818-0.024-1.023v-4.097h0.776L147.455,203.503
			L147.455,203.503z"/>
		<path fill="#111111" d="M151.615,203.503h-0.83v-6.401h-2.261v-0.737h5.352v0.737h-2.261V203.503z"/>
	</g>
	<g>
		<path fill="#111111" d="M99.308,240.503l-2.422-6.328h-0.039c0.045,0.501,0.068,1.097,0.068,1.787v4.541h-0.767v-7.139h1.25
			l2.261,5.889h0.039l2.28-5.889h1.24v7.139h-0.83v-4.601c0-0.526,0.023-1.1,0.068-1.719h-0.039l-2.441,6.318L99.308,240.503
			L99.308,240.503z"/>
		<path fill="#111111" d="M109.665,240.503l-0.889-2.271h-2.861l-0.879,2.271h-0.84l2.822-7.168h0.698l2.808,7.168H109.665z
			 M108.517,237.484l-0.83-2.211c-0.107-0.28-0.218-0.625-0.332-1.03c-0.072,0.312-0.174,0.655-0.308,1.03l-0.84,2.211H108.517z"/>
		<path fill="#111111" d="M111.505,240.503v-7.139h0.83v7.139H111.505L111.505,240.503z"/>
		<path fill="#111111" d="M119.87,240.503h-0.947l-3.901-5.991h-0.039c0.052,0.703,0.078,1.348,0.078,1.934v4.059h-0.767v-7.139
			h0.938l3.892,5.967h0.039c-0.006-0.088-0.021-0.37-0.044-0.848c-0.023-0.477-0.031-0.817-0.024-1.022v-4.097h0.776L119.87,240.503
			L119.87,240.503z"/>
		<path fill="#111111" d="M121.261,238.193v-0.742h2.397v0.742H121.261z"/>
		<path fill="#111111" d="M125.05,233.363h2.017c0.947,0,1.632,0.143,2.056,0.426s0.635,0.73,0.635,1.343
			c0,0.423-0.118,0.772-0.354,1.048c-0.236,0.274-0.58,0.452-1.033,0.534v0.05c1.084,0.186,1.626,0.754,1.626,1.709
			c0,0.637-0.216,1.135-0.647,1.493c-0.431,0.358-1.034,0.537-1.809,0.537h-2.49L125.05,233.363L125.05,233.363z M125.88,236.421
			h1.367c0.586,0,1.007-0.092,1.265-0.276c0.258-0.184,0.386-0.494,0.386-0.93c0-0.4-0.143-0.689-0.43-0.867
			c-0.287-0.178-0.742-0.266-1.367-0.266h-1.221V236.421z M125.88,237.124v2.671h1.489c0.576,0,1.01-0.111,1.301-0.334
			s0.437-0.572,0.437-1.047c0-0.443-0.149-0.768-0.447-0.977c-0.298-0.209-0.751-0.312-1.36-0.312L125.88,237.124L125.88,237.124z"
			/>
		<path fill="#111111" d="M137.726,236.924c0,1.143-0.289,2.041-0.867,2.695s-1.381,0.98-2.41,0.98c-1.051,0-1.863-0.32-2.434-0.963
			c-0.571-0.644-0.857-1.551-0.857-2.723c0-1.162,0.287-2.062,0.859-2.703c0.572-0.641,1.387-0.959,2.441-0.959
			c1.025,0,1.826,0.326,2.402,0.977C137.436,234.88,137.726,235.777,137.726,236.924z M132.038,236.924c0,0.967,0.206,1.7,0.618,2.2
			c0.412,0.5,1.01,0.75,1.794,0.75c0.791,0,1.388-0.249,1.792-0.747c0.404-0.498,0.605-1.232,0.605-2.202
			c0-0.96-0.201-1.688-0.603-2.185c-0.402-0.497-0.997-0.745-1.785-0.745c-0.791,0-1.393,0.25-1.804,0.75
			C132.244,235.245,132.038,235.971,132.038,236.924z"/>
		<path fill="#111111" d="M141.515,240.503h-0.83v-6.401h-2.261v-0.736h5.352v0.736h-2.261V240.503z"/>
		<path fill="#111111" d="M147.047,240.503h-0.83v-6.401h-2.261v-0.736h5.352v0.736h-2.261V240.503z"/>
		<path fill="#111111" d="M156.579,236.924c0,1.143-0.289,2.041-0.867,2.695s-1.381,0.98-2.41,0.98c-1.051,0-1.863-0.32-2.434-0.963
			c-0.571-0.644-0.857-1.551-0.857-2.723c0-1.162,0.287-2.062,0.859-2.703c0.572-0.641,1.387-0.959,2.441-0.959
			c1.025,0,1.826,0.326,2.402,0.977C156.289,234.88,156.579,235.777,156.579,236.924z M150.89,236.924c0,0.967,0.206,1.7,0.618,2.2
			c0.412,0.5,1.01,0.75,1.794,0.75c0.791,0,1.388-0.249,1.792-0.747c0.404-0.498,0.605-1.232,0.605-2.202
			c0-0.96-0.201-1.688-0.603-2.185c-0.402-0.497-0.997-0.745-1.785-0.745c-0.791,0-1.393,0.25-1.804,0.75
			C151.096,235.245,150.89,235.971,150.89,236.924z"/>
		<path fill="#111111" d="M161.33,240.503l-2.422-6.328h-0.039c0.045,0.501,0.068,1.097,0.068,1.787v4.541h-0.767v-7.139h1.25
			l2.261,5.889h0.039l2.28-5.889h1.24v7.139h-0.83v-4.601c0-0.526,0.023-1.1,0.068-1.719h-0.039l-2.441,6.318L161.33,240.503
			L161.33,240.503z"/>
	</g>
	<g>
		<path fill="#111111" d="M106.149,257.364h2.017c0.947,0,1.632,0.142,2.056,0.425c0.424,0.283,0.635,0.73,0.635,1.343
			c0,0.423-0.118,0.772-0.354,1.048c-0.236,0.274-0.58,0.453-1.033,0.534v0.05c1.084,0.186,1.626,0.754,1.626,1.709
			c0,0.637-0.216,1.135-0.647,1.493c-0.431,0.358-1.034,0.537-1.809,0.537h-2.49L106.149,257.364L106.149,257.364z M106.979,260.421
			h1.367c0.586,0,1.007-0.092,1.265-0.276c0.257-0.184,0.386-0.494,0.386-0.93c0-0.4-0.143-0.689-0.43-0.867
			c-0.287-0.177-0.742-0.266-1.367-0.266h-1.221V260.421z M106.979,261.124v2.671h1.489c0.576,0,1.01-0.111,1.301-0.334
			c0.292-0.225,0.437-0.572,0.437-1.048c0-0.442-0.149-0.769-0.447-0.978c-0.298-0.207-0.751-0.312-1.36-0.312H106.979
			L106.979,261.124z"/>
		<path fill="#111111" d="M118.825,260.924c0,1.143-0.289,2.041-0.867,2.695s-1.381,0.98-2.41,0.98c-1.051,0-1.863-0.32-2.434-0.963
			c-0.571-0.645-0.857-1.552-0.857-2.724c0-1.162,0.287-2.062,0.859-2.703c0.573-0.64,1.387-0.959,2.441-0.959
			c1.025,0,1.826,0.326,2.402,0.978C118.535,258.879,118.825,259.777,118.825,260.924z M113.136,260.924
			c0,0.967,0.206,1.7,0.618,2.199c0.412,0.5,1.01,0.75,1.794,0.75c0.791,0,1.388-0.249,1.792-0.747
			c0.404-0.498,0.605-1.231,0.605-2.202c0-0.961-0.201-1.688-0.603-2.186c-0.402-0.496-0.997-0.744-1.785-0.744
			c-0.791,0-1.393,0.25-1.804,0.75C113.342,259.243,113.136,259.971,113.136,260.924z"/>
		<path fill="#111111" d="M122.614,264.503h-0.83v-6.401h-2.261v-0.736h5.352v0.736h-2.261V264.503L122.614,264.503z"/>
		<path fill="#111111" d="M128.146,264.503h-0.83v-6.401h-2.261v-0.736h5.352v0.736h-2.261V264.503z"/>
		<path fill="#111111" d="M137.677,260.924c0,1.143-0.289,2.041-0.867,2.695s-1.381,0.98-2.41,0.98c-1.051,0-1.863-0.32-2.434-0.963
			c-0.571-0.645-0.857-1.552-0.857-2.724c0-1.162,0.287-2.062,0.859-2.703c0.573-0.64,1.387-0.959,2.441-0.959
			c1.025,0,1.826,0.326,2.402,0.978C137.387,258.879,137.677,259.777,137.677,260.924z M131.989,260.924
			c0,0.967,0.206,1.7,0.618,2.199c0.412,0.5,1.01,0.75,1.794,0.75c0.791,0,1.388-0.249,1.792-0.747
			c0.404-0.498,0.605-1.231,0.605-2.202c0-0.961-0.201-1.688-0.603-2.186c-0.402-0.496-0.997-0.744-1.785-0.744
			c-0.791,0-1.393,0.25-1.804,0.75C132.195,259.243,131.989,259.971,131.989,260.924z"/>
		<path fill="#111111" d="M142.428,264.503l-2.422-6.328h-0.039c0.045,0.501,0.068,1.097,0.068,1.787v4.541h-0.767v-7.14h1.25
			l2.261,5.89h0.039l2.28-5.89h1.24v7.14h-0.83v-4.601c0-0.526,0.023-1.101,0.068-1.719h-0.039l-2.441,6.318L142.428,264.503
			L142.428,264.503z"/>
		<path fill="#111111" d="M147.726,262.193v-0.742h2.397v0.742H147.726z"/>
		<path fill="#111111" d="M156.002,264.503l-0.889-2.271h-2.861l-0.879,2.271h-0.84l2.822-7.168h0.698l2.808,7.168H156.002z
			 M154.855,261.484l-0.83-2.211c-0.107-0.279-0.218-0.623-0.332-1.03c-0.072,0.312-0.174,0.655-0.308,1.03l-0.84,2.211H154.855z"/>
	</g>
	<g>
		<path fill="#111111" d="M106.149,284.364h2.017c0.947,0,1.632,0.142,2.056,0.425c0.424,0.283,0.635,0.73,0.635,1.343
			c0,0.423-0.118,0.772-0.354,1.048c-0.236,0.274-0.58,0.453-1.033,0.534v0.05c1.084,0.186,1.626,0.754,1.626,1.709
			c0,0.637-0.216,1.135-0.647,1.493c-0.431,0.358-1.034,0.537-1.809,0.537h-2.49L106.149,284.364L106.149,284.364z M106.979,287.421
			h1.367c0.586,0,1.007-0.092,1.265-0.276c0.257-0.184,0.386-0.494,0.386-0.93c0-0.4-0.143-0.689-0.43-0.867
			c-0.287-0.177-0.742-0.266-1.367-0.266h-1.221V287.421z M106.979,288.124v2.671h1.489c0.576,0,1.01-0.111,1.301-0.334
			c0.292-0.225,0.437-0.572,0.437-1.048c0-0.442-0.149-0.769-0.447-0.978c-0.298-0.207-0.751-0.312-1.36-0.312H106.979
			L106.979,288.124z"/>
		<path fill="#111111" d="M118.825,287.924c0,1.143-0.289,2.041-0.867,2.695s-1.381,0.98-2.41,0.98c-1.051,0-1.863-0.32-2.434-0.963
			c-0.571-0.645-0.857-1.552-0.857-2.724c0-1.162,0.287-2.062,0.859-2.703c0.573-0.64,1.387-0.959,2.441-0.959
			c1.025,0,1.826,0.326,2.402,0.978C118.535,285.879,118.825,286.777,118.825,287.924z M113.136,287.924
			c0,0.967,0.206,1.7,0.618,2.199c0.412,0.5,1.01,0.75,1.794,0.75c0.791,0,1.388-0.249,1.792-0.747
			c0.404-0.498,0.605-1.231,0.605-2.202c0-0.961-0.201-1.688-0.603-2.186c-0.402-0.496-0.997-0.744-1.785-0.744
			c-0.791,0-1.393,0.25-1.804,0.75C113.342,286.243,113.136,286.971,113.136,287.924z"/>
		<path fill="#111111" d="M122.614,291.503h-0.83v-6.401h-2.261v-0.736h5.352v0.736h-2.261V291.503L122.614,291.503z"/>
		<path fill="#111111" d="M128.146,291.503h-0.83v-6.401h-2.261v-0.736h5.352v0.736h-2.261V291.503z"/>
		<path fill="#111111" d="M137.677,287.924c0,1.143-0.289,2.041-0.867,2.695s-1.381,0.98-2.41,0.98c-1.051,0-1.863-0.32-2.434-0.963
			c-0.571-0.645-0.857-1.552-0.857-2.724c0-1.162,0.287-2.062,0.859-2.703c0.573-0.64,1.387-0.959,2.441-0.959
			c1.025,0,1.826,0.326,2.402,0.978C137.387,285.879,137.677,286.777,137.677,287.924z M131.989,287.924
			c0,0.967,0.206,1.7,0.618,2.199c0.412,0.5,1.01,0.75,1.794,0.75c0.791,0,1.388-0.249,1.792-0.747
			c0.404-0.498,0.605-1.231,0.605-2.202c0-0.961-0.201-1.688-0.603-2.186c-0.402-0.496-0.997-0.744-1.785-0.744
			c-0.791,0-1.393,0.25-1.804,0.75C132.195,286.243,131.989,286.971,131.989,287.924z"/>
		<path fill="#111111" d="M142.428,291.503l-2.422-6.328h-0.039c0.045,0.501,0.068,1.097,0.068,1.787v4.541h-0.767v-7.14h1.25
			l2.261,5.89h0.039l2.28-5.89h1.24v7.14h-0.83v-4.601c0-0.526,0.023-1.101,0.068-1.719h-0.039l-2.441,6.318L142.428,291.503
			L142.428,291.503z"/>
		<path fill="#111111" d="M147.726,289.193v-0.742h2.397v0.742H147.726z"/>
		<path fill="#111111" d="M151.515,284.364h2.017c0.947,0,1.632,0.142,2.056,0.425c0.424,0.283,0.635,0.73,0.635,1.343
			c0,0.423-0.118,0.772-0.354,1.048c-0.236,0.274-0.58,0.453-1.033,0.534v0.05c1.084,0.186,1.626,0.754,1.626,1.709
			c0,0.637-0.216,1.135-0.647,1.493s-1.034,0.537-1.809,0.537h-2.49L151.515,284.364L151.515,284.364z M152.345,287.421h1.367
			c0.586,0,1.007-0.092,1.265-0.276c0.257-0.184,0.386-0.494,0.386-0.93c0-0.4-0.143-0.689-0.43-0.867
			c-0.287-0.177-0.742-0.266-1.367-0.266h-1.221V287.421L152.345,287.421z M152.345,288.124v2.671h1.489
			c0.576,0,1.01-0.111,1.301-0.334c0.292-0.225,0.437-0.572,0.437-1.048c0-0.442-0.149-0.769-0.447-0.978
			c-0.298-0.207-0.751-0.312-1.36-0.312H152.345L152.345,288.124z"/>
	</g>
	<g>
		<path fill="#111111" d="M106.149,311.364h2.017c0.947,0,1.632,0.142,2.056,0.425c0.424,0.283,0.635,0.729,0.635,1.343
			c0,0.423-0.118,0.772-0.354,1.048c-0.236,0.274-0.58,0.453-1.033,0.534v0.049c1.084,0.187,1.626,0.755,1.626,1.709
			c0,0.639-0.216,1.137-0.647,1.494c-0.431,0.358-1.034,0.537-1.809,0.537h-2.49L106.149,311.364L106.149,311.364z M106.979,314.421
			h1.367c0.586,0,1.007-0.092,1.265-0.276c0.257-0.184,0.386-0.493,0.386-0.93c0-0.399-0.143-0.688-0.43-0.867
			c-0.287-0.177-0.742-0.266-1.367-0.266h-1.221V314.421z M106.979,315.124v2.671h1.489c0.576,0,1.01-0.111,1.301-0.334
			c0.292-0.224,0.437-0.572,0.437-1.048c0-0.442-0.149-0.77-0.447-0.978c-0.298-0.208-0.751-0.312-1.36-0.312H106.979
			L106.979,315.124z"/>
		<path fill="#111111" d="M118.825,314.924c0,1.144-0.289,2.041-0.867,2.695s-1.381,0.98-2.41,0.98c-1.051,0-1.863-0.32-2.434-0.964
			c-0.571-0.644-0.857-1.551-0.857-2.723c0-1.162,0.287-2.062,0.859-2.703c0.573-0.639,1.387-0.959,2.441-0.959
			c1.025,0,1.826,0.326,2.402,0.977C118.535,312.879,118.825,313.777,118.825,314.924z M113.136,314.924
			c0,0.967,0.206,1.7,0.618,2.199c0.412,0.5,1.01,0.75,1.794,0.75c0.791,0,1.388-0.249,1.792-0.747
			c0.404-0.498,0.605-1.231,0.605-2.202c0-0.961-0.201-1.688-0.603-2.186c-0.402-0.496-0.997-0.744-1.785-0.744
			c-0.791,0-1.393,0.25-1.804,0.75C113.342,313.243,113.136,313.971,113.136,314.924z"/>
		<path fill="#111111" d="M122.614,318.503h-0.83v-6.401h-2.261v-0.736h5.352v0.736h-2.261V318.503L122.614,318.503z"/>
		<path fill="#111111" d="M128.146,318.503h-0.83v-6.401h-2.261v-0.736h5.352v0.736h-2.261V318.503z"/>
		<path fill="#111111" d="M137.677,314.924c0,1.144-0.289,2.041-0.867,2.695s-1.381,0.98-2.41,0.98c-1.051,0-1.863-0.32-2.434-0.964
			c-0.571-0.644-0.857-1.551-0.857-2.723c0-1.162,0.287-2.062,0.859-2.703c0.573-0.639,1.387-0.959,2.441-0.959
			c1.025,0,1.826,0.326,2.402,0.977C137.387,312.879,137.677,313.777,137.677,314.924z M131.989,314.924
			c0,0.967,0.206,1.7,0.618,2.199c0.412,0.5,1.01,0.75,1.794,0.75c0.791,0,1.388-0.249,1.792-0.747
			c0.404-0.498,0.605-1.231,0.605-2.202c0-0.961-0.201-1.688-0.603-2.186c-0.402-0.496-0.997-0.744-1.785-0.744
			c-0.791,0-1.393,0.25-1.804,0.75C132.195,313.243,131.989,313.971,131.989,314.924z"/>
		<path fill="#111111" d="M142.428,318.503l-2.422-6.328h-0.039c0.045,0.501,0.068,1.097,0.068,1.787v4.541h-0.767v-7.139h1.25
			l2.261,5.889h0.039l2.28-5.889h1.24v7.139h-0.83v-4.6c0-0.527,0.023-1.102,0.068-1.72h-0.039l-2.441,6.318L142.428,318.503
			L142.428,318.503z"/>
		<path fill="#111111" d="M147.726,316.193v-0.742h2.397v0.742H147.726z"/>
		<path fill="#111111" d="M154.572,312.004c-0.785,0-1.404,0.262-1.858,0.783c-0.454,0.522-0.681,1.238-0.681,2.146
			c0,0.935,0.219,1.656,0.657,2.166s1.062,0.765,1.873,0.765c0.498,0,1.066-0.09,1.704-0.27v0.729
			c-0.495,0.186-1.105,0.277-1.831,0.277c-1.051,0-1.863-0.318-2.434-0.957c-0.571-0.638-0.857-1.544-0.857-2.72
			c0-0.736,0.138-1.381,0.413-1.934c0.275-0.554,0.672-0.98,1.191-1.279s1.13-0.449,1.833-0.449c0.749,0,1.403,0.138,1.963,0.41
			l-0.352,0.713C155.652,312.131,155.112,312.004,154.572,312.004z"/>
	</g>
	<g>
		<path fill="#111111" d="M106.149,338.364h2.017c0.947,0,1.632,0.142,2.056,0.425c0.424,0.283,0.635,0.729,0.635,1.343
			c0,0.423-0.118,0.772-0.354,1.048c-0.236,0.274-0.58,0.453-1.033,0.534v0.049c1.084,0.187,1.626,0.755,1.626,1.709
			c0,0.639-0.216,1.137-0.647,1.494c-0.431,0.358-1.034,0.537-1.809,0.537h-2.49L106.149,338.364L106.149,338.364z M106.979,341.421
			h1.367c0.586,0,1.007-0.092,1.265-0.276c0.257-0.184,0.386-0.493,0.386-0.93c0-0.399-0.143-0.688-0.43-0.867
			c-0.287-0.177-0.742-0.266-1.367-0.266h-1.221V341.421z M106.979,342.124v2.671h1.489c0.576,0,1.01-0.111,1.301-0.334
			c0.292-0.224,0.437-0.572,0.437-1.048c0-0.442-0.149-0.77-0.447-0.978c-0.298-0.208-0.751-0.312-1.36-0.312H106.979
			L106.979,342.124z"/>
		<path fill="#111111" d="M118.825,341.924c0,1.144-0.289,2.041-0.867,2.695s-1.381,0.98-2.41,0.98c-1.051,0-1.863-0.32-2.434-0.964
			c-0.571-0.644-0.857-1.551-0.857-2.723c0-1.162,0.287-2.062,0.859-2.703c0.573-0.639,1.387-0.959,2.441-0.959
			c1.025,0,1.826,0.326,2.402,0.977C118.535,339.879,118.825,340.777,118.825,341.924z M113.136,341.924
			c0,0.967,0.206,1.7,0.618,2.199c0.412,0.5,1.01,0.75,1.794,0.75c0.791,0,1.388-0.249,1.792-0.747
			c0.404-0.498,0.605-1.231,0.605-2.202c0-0.961-0.201-1.688-0.603-2.186c-0.402-0.496-0.997-0.744-1.785-0.744
			c-0.791,0-1.393,0.25-1.804,0.75C113.342,340.243,113.136,340.971,113.136,341.924z"/>
		<path fill="#111111" d="M122.614,345.503h-0.83v-6.401h-2.261v-0.736h5.352v0.736h-2.261V345.503L122.614,345.503z"/>
		<path fill="#111111" d="M128.146,345.503h-0.83v-6.401h-2.261v-0.736h5.352v0.736h-2.261V345.503z"/>
		<path fill="#111111" d="M137.677,341.924c0,1.144-0.289,2.041-0.867,2.695s-1.381,0.98-2.41,0.98c-1.051,0-1.863-0.32-2.434-0.964
			c-0.571-0.644-0.857-1.551-0.857-2.723c0-1.162,0.287-2.062,0.859-2.703c0.573-0.639,1.387-0.959,2.441-0.959
			c1.025,0,1.826,0.326,2.402,0.977C137.387,339.879,137.677,340.777,137.677,341.924z M131.989,341.924
			c0,0.967,0.206,1.7,0.618,2.199c0.412,0.5,1.01,0.75,1.794,0.75c0.791,0,1.388-0.249,1.792-0.747
			c0.404-0.498,0.605-1.231,0.605-2.202c0-0.961-0.201-1.688-0.603-2.186c-0.402-0.496-0.997-0.744-1.785-0.744
			c-0.791,0-1.393,0.25-1.804,0.75C132.195,340.243,131.989,340.971,131.989,341.924z"/>
		<path fill="#111111" d="M142.428,345.503l-2.422-6.328h-0.039c0.045,0.501,0.068,1.097,0.068,1.787v4.541h-0.767v-7.139h1.25
			l2.261,5.889h0.039l2.28-5.889h1.24v7.139h-0.83v-4.6c0-0.527,0.023-1.102,0.068-1.72h-0.039l-2.441,6.318L142.428,345.503
			L142.428,345.503z"/>
		<path fill="#111111" d="M147.726,343.193v-0.742h2.397v0.742H147.726z"/>
		<path fill="#111111" d="M157.213,341.865c0,1.178-0.32,2.079-0.959,2.703c-0.64,0.623-1.56,0.935-2.761,0.935h-1.978v-7.139h2.188
			c1.11,0,1.973,0.308,2.588,0.923C156.906,339.902,157.213,340.762,157.213,341.865z M156.334,341.895
			c0-0.932-0.233-1.633-0.701-2.104c-0.468-0.471-1.161-0.708-2.083-0.708h-1.206v5.703h1.011c0.99,0,1.733-0.243,2.231-0.73
			C156.085,343.568,156.334,342.848,156.334,341.895z"/>
	</g>
	<g>
		<path fill="#111111" d="M107.149,365.364h2.017c0.947,0,1.632,0.142,2.056,0.425c0.424,0.283,0.635,0.729,0.635,1.343
			c0,0.423-0.118,0.772-0.354,1.048c-0.236,0.274-0.58,0.453-1.033,0.534v0.049c1.084,0.187,1.626,0.755,1.626,1.709
			c0,0.639-0.216,1.137-0.647,1.494c-0.431,0.358-1.034,0.537-1.809,0.537h-2.49L107.149,365.364L107.149,365.364z M107.979,368.421
			h1.367c0.586,0,1.007-0.092,1.265-0.276c0.257-0.184,0.386-0.493,0.386-0.93c0-0.399-0.143-0.688-0.43-0.867
			c-0.287-0.177-0.742-0.266-1.367-0.266h-1.221V368.421z M107.979,369.124v2.671h1.489c0.576,0,1.01-0.111,1.301-0.334
			c0.292-0.224,0.437-0.572,0.437-1.048c0-0.442-0.149-0.77-0.447-0.978c-0.298-0.208-0.751-0.312-1.36-0.312H107.979
			L107.979,369.124z"/>
		<path fill="#111111" d="M119.825,368.924c0,1.144-0.289,2.041-0.867,2.695s-1.381,0.98-2.41,0.98c-1.051,0-1.863-0.32-2.434-0.964
			c-0.571-0.644-0.857-1.551-0.857-2.723c0-1.162,0.287-2.062,0.859-2.703c0.573-0.639,1.387-0.959,2.441-0.959
			c1.025,0,1.826,0.326,2.402,0.977C119.535,366.879,119.825,367.777,119.825,368.924z M114.136,368.924
			c0,0.967,0.206,1.7,0.618,2.199c0.412,0.5,1.01,0.75,1.794,0.75c0.791,0,1.388-0.249,1.792-0.747
			c0.404-0.498,0.605-1.231,0.605-2.202c0-0.961-0.201-1.688-0.603-2.186c-0.402-0.496-0.997-0.744-1.785-0.744
			c-0.791,0-1.393,0.25-1.804,0.75C114.342,367.243,114.136,367.971,114.136,368.924z"/>
		<path fill="#111111" d="M123.614,372.503h-0.83v-6.401h-2.261v-0.736h5.352v0.736h-2.261V372.503L123.614,372.503z"/>
		<path fill="#111111" d="M129.146,372.503h-0.83v-6.401h-2.261v-0.736h5.352v0.736h-2.261V372.503z"/>
		<path fill="#111111" d="M138.677,368.924c0,1.144-0.289,2.041-0.867,2.695s-1.381,0.98-2.41,0.98c-1.051,0-1.863-0.32-2.434-0.964
			c-0.571-0.644-0.857-1.551-0.857-2.723c0-1.162,0.287-2.062,0.859-2.703c0.573-0.639,1.387-0.959,2.441-0.959
			c1.025,0,1.826,0.326,2.402,0.977C138.387,366.879,138.677,367.777,138.677,368.924z M132.989,368.924
			c0,0.967,0.206,1.7,0.618,2.199c0.412,0.5,1.01,0.75,1.794,0.75c0.791,0,1.388-0.249,1.792-0.747
			c0.404-0.498,0.605-1.231,0.605-2.202c0-0.961-0.201-1.688-0.603-2.186c-0.402-0.496-0.997-0.744-1.785-0.744
			c-0.791,0-1.393,0.25-1.804,0.75C133.195,367.243,132.989,367.971,132.989,368.924z"/>
		<path fill="#111111" d="M143.428,372.503l-2.422-6.328h-0.039c0.045,0.501,0.068,1.097,0.068,1.787v4.541h-0.767v-7.139h1.25
			l2.261,5.889h0.039l2.28-5.889h1.24v7.139h-0.83v-4.6c0-0.527,0.023-1.102,0.068-1.72h-0.039l-2.441,6.318L143.428,372.503
			L143.428,372.503z"/>
		<path fill="#111111" d="M148.726,370.193v-0.742h2.397v0.742H148.726z"/>
		<path fill="#111111" d="M156.495,372.503h-3.979v-7.139h3.979v0.736h-3.149v2.301h2.959v0.731h-2.959v2.627h3.149V372.503z"/>
	</g>
	<g>
		<path fill="#111111" d="M112.979,397.503h-0.83v-7.139h3.979v0.736h-3.149v2.612h2.959v0.737h-2.959V397.503L112.979,397.503z"/>
		<path fill="#111111" d="M123.506,393.924c0,1.144-0.289,2.041-0.867,2.695c-0.578,0.654-1.381,0.98-2.41,0.98
			c-1.051,0-1.863-0.32-2.434-0.964c-0.571-0.644-0.857-1.551-0.857-2.723c0-1.162,0.287-2.062,0.859-2.703
			c0.573-0.639,1.387-0.959,2.441-0.959c1.025,0,1.826,0.326,2.402,0.977C123.216,391.879,123.506,392.777,123.506,393.924z
			 M117.818,393.924c0,0.967,0.206,1.7,0.618,2.199c0.412,0.5,1.01,0.75,1.794,0.75c0.791,0,1.388-0.249,1.792-0.747
			s0.605-1.231,0.605-2.202c0-0.961-0.201-1.688-0.603-2.186c-0.402-0.496-0.997-0.744-1.785-0.744c-0.791,0-1.393,0.25-1.804,0.75
			C118.024,392.243,117.818,392.971,117.818,393.924z"/>
		<path fill="#111111" d="M131.294,393.924c0,1.144-0.289,2.041-0.867,2.695c-0.578,0.654-1.381,0.98-2.41,0.98
			c-1.051,0-1.863-0.32-2.434-0.964s-0.857-1.551-0.857-2.723c0-1.162,0.287-2.062,0.859-2.703c0.573-0.639,1.387-0.959,2.441-0.959
			c1.025,0,1.826,0.326,2.402,0.977C131.004,391.879,131.294,392.777,131.294,393.924z M125.606,393.924
			c0,0.967,0.206,1.7,0.618,2.199c0.412,0.5,1.01,0.75,1.794,0.75c0.791,0,1.388-0.249,1.792-0.747s0.605-1.231,0.605-2.202
			c0-0.961-0.201-1.688-0.603-2.186c-0.402-0.496-0.997-0.744-1.785-0.744c-0.791,0-1.393,0.25-1.804,0.75
			C125.812,392.243,125.606,392.971,125.606,393.924z"/>
		<path fill="#111111" d="M135.083,397.503h-0.83v-6.401h-2.261v-0.736h5.352v0.736h-2.261V397.503z"/>
		<path fill="#111111" d="M142.398,397.503h-3.979v-7.139h3.979v0.736h-3.149v2.301h2.959v0.731h-2.959v2.627h3.149V397.503z"/>
		<path fill="#111111" d="M144.81,394.534v2.969h-0.83v-7.139h1.958c0.875,0,1.522,0.167,1.941,0.503s0.627,0.84,0.627,1.514
			c0,0.943-0.479,1.582-1.436,1.914l1.938,3.208h-0.981l-1.729-2.969H144.81z M144.81,393.821h1.138c0.586,0,1.016-0.116,1.289-0.35
			c0.273-0.232,0.41-0.582,0.41-1.048c0-0.472-0.139-0.812-0.417-1.021s-0.725-0.312-1.34-0.312h-1.079L144.81,393.821
			L144.81,393.821z"/>
	</g>
	<g>
		<path fill="#111111" d="M15.027,220.77c0.628,0,1.118,0.229,1.47,0.685s0.527,1.073,0.527,1.854c0,0.846-0.109,1.498-0.327,1.953
			h-0.801c0.124-0.293,0.221-0.611,0.293-0.957c0.072-0.345,0.107-0.687,0.107-1.025c0-0.553-0.105-0.969-0.315-1.25
			c-0.21-0.279-0.502-0.42-0.876-0.42c-0.248,0-0.45,0.051-0.608,0.149c-0.158,0.099-0.304,0.265-0.437,0.498
			c-0.133,0.233-0.285,0.587-0.454,1.062c-0.238,0.664-0.519,1.14-0.845,1.424c-0.326,0.283-0.75,0.427-1.274,0.427
			c-0.55,0-0.988-0.207-1.313-0.62c-0.325-0.412-0.488-0.96-0.488-1.641c0-0.709,0.13-1.362,0.391-1.958l0.723,0.259
			c-0.248,0.589-0.371,1.162-0.371,1.719c0,0.439,0.094,0.783,0.283,1.03s0.451,0.371,0.786,0.371c0.248,0,0.45-0.045,0.608-0.138
			c0.158-0.092,0.303-0.244,0.435-0.461c0.132-0.215,0.277-0.547,0.437-0.994c0.267-0.748,0.553-1.264,0.859-1.545
			C14.143,220.911,14.539,220.77,15.027,220.77z"/>
		<path fill="#111111" d="M16.926,219.311H9.788v-0.83h7.139L16.926,219.311L16.926,219.311z"/>
		<path fill="#111111" d="M13.289,210.823c1.178,0,2.079,0.319,2.703,0.959c0.624,0.639,0.935,1.56,0.935,2.761v1.979H9.788v-2.188
			c0-1.11,0.308-1.974,0.923-2.588C11.326,211.13,12.185,210.823,13.289,210.823z M13.318,211.702c-0.931,0-1.632,0.233-2.104,0.7
			c-0.472,0.469-0.708,1.162-0.708,2.084v1.205h5.703v-1.01c0-0.99-0.243-1.734-0.73-2.231
			C14.992,211.952,14.271,211.702,13.318,211.702z"/>
		<path fill="#111111" d="M16.926,205.252v3.979H9.788v-3.979h0.737v3.148h2.3v-2.958h0.732v2.958h2.627v-3.148H16.926z"/>
		<path fill="#111111" d="M9.788,203.67v-2.017c0-0.947,0.142-1.632,0.425-2.056c0.283-0.424,0.731-0.635,1.343-0.635
			c0.423,0,0.772,0.118,1.047,0.354c0.275,0.236,0.453,0.58,0.535,1.033h0.049c0.186-1.084,0.755-1.626,1.709-1.626
			c0.638,0,1.136,0.216,1.494,0.647c0.358,0.431,0.537,1.034,0.537,1.809v2.49L9.788,203.67L9.788,203.67z M12.844,202.84v-1.367
			c0-0.586-0.092-1.007-0.276-1.265s-0.494-0.386-0.93-0.386c-0.4,0-0.689,0.143-0.867,0.43s-0.266,0.742-0.266,1.367v1.221H12.844
			L12.844,202.84z M13.547,202.84h2.671v-1.489c0-0.576-0.111-1.01-0.334-1.301c-0.223-0.291-0.572-0.437-1.047-0.437
			c-0.443,0-0.768,0.149-0.977,0.447s-0.312,0.751-0.312,1.36L13.547,202.84L13.547,202.84z"/>
		<path fill="#111111" d="M16.926,192.703l-2.271,0.889v2.861l2.271,0.879v0.84l-7.168-2.822v-0.698l7.168-2.808V192.703z
			 M13.909,193.851l-2.212,0.83c-0.28,0.107-0.624,0.218-1.03,0.332c0.312,0.072,0.656,0.174,1.03,0.308l2.212,0.84V193.851z"/>
		<path fill="#111111" d="M13.958,190.032h2.969v0.83H9.788v-1.958c0-0.875,0.167-1.522,0.503-1.941s0.84-0.627,1.514-0.627
			c0.944,0,1.582,0.479,1.914,1.436l3.208-1.938v0.981l-2.969,1.729V190.032z M13.245,190.032v-1.138
			c0-0.586-0.116-1.016-0.349-1.289s-0.582-0.41-1.047-0.41c-0.472,0-0.812,0.139-1.021,0.417c-0.209,0.278-0.312,0.725-0.312,1.34
			v1.079h2.729V190.032z"/>
		<path fill="#111111" d="M14.617,185.252h-0.742v-2.397h0.742V185.252z"/>
		<path fill="#111111" d="M16.926,176.976l-2.271,0.889v2.861l2.271,0.879v0.84l-7.168-2.822v-0.698l7.168-2.808V176.976z
			 M13.909,178.123l-2.212,0.83c-0.28,0.107-0.624,0.218-1.03,0.332c0.312,0.072,0.656,0.174,1.03,0.308l2.212,0.84V178.123z"/>
	</g>
	<g>
		<path fill="#111111" d="M46.027,219.77c0.628,0,1.118,0.229,1.47,0.685s0.527,1.073,0.527,1.854c0,0.846-0.109,1.498-0.327,1.953
			h-0.801c0.124-0.293,0.221-0.611,0.293-0.957c0.072-0.345,0.107-0.687,0.107-1.025c0-0.553-0.105-0.969-0.315-1.25
			c-0.21-0.279-0.502-0.42-0.876-0.42c-0.248,0-0.45,0.051-0.608,0.149c-0.158,0.099-0.304,0.265-0.437,0.498
			c-0.133,0.233-0.285,0.587-0.454,1.062c-0.238,0.664-0.519,1.14-0.845,1.424c-0.326,0.283-0.75,0.427-1.274,0.427
			c-0.55,0-0.988-0.207-1.313-0.62c-0.325-0.412-0.488-0.96-0.488-1.641c0-0.709,0.13-1.362,0.391-1.958l0.723,0.259
			c-0.248,0.589-0.371,1.162-0.371,1.719c0,0.439,0.094,0.783,0.283,1.03s0.451,0.371,0.786,0.371c0.248,0,0.45-0.045,0.608-0.138
			c0.158-0.092,0.303-0.244,0.435-0.461c0.132-0.215,0.277-0.547,0.437-0.994c0.267-0.748,0.553-1.264,0.859-1.545
			C45.143,219.911,45.539,219.77,46.027,219.77z"/>
		<path fill="#111111" d="M47.926,218.311h-7.139v-0.83h7.139V218.311z"/>
		<path fill="#111111" d="M44.289,209.823c1.178,0,2.079,0.319,2.703,0.959c0.624,0.639,0.935,1.56,0.935,2.761v1.979h-7.139v-2.188
			c0-1.11,0.308-1.974,0.923-2.588C42.326,210.13,43.185,209.823,44.289,209.823z M44.318,210.702c-0.931,0-1.632,0.233-2.104,0.7
			c-0.472,0.469-0.708,1.162-0.708,2.084v1.205h5.703v-1.01c0-0.99-0.243-1.734-0.73-2.231
			C45.992,210.952,45.271,210.702,44.318,210.702z"/>
		<path fill="#111111" d="M47.926,204.252v3.979h-7.139v-3.979h0.737v3.148h2.3v-2.958h0.732v2.958h2.627v-3.148H47.926z"/>
		<path fill="#111111" d="M40.788,202.67v-2.017c0-0.947,0.142-1.632,0.425-2.056c0.283-0.424,0.731-0.635,1.343-0.635
			c0.423,0,0.772,0.118,1.047,0.354c0.275,0.236,0.453,0.58,0.535,1.033h0.049c0.186-1.084,0.755-1.626,1.709-1.626
			c0.638,0,1.136,0.216,1.494,0.647c0.358,0.431,0.537,1.034,0.537,1.809v2.49L40.788,202.67L40.788,202.67z M43.844,201.84v-1.367
			c0-0.586-0.092-1.007-0.276-1.265s-0.494-0.386-0.93-0.386c-0.4,0-0.689,0.143-0.867,0.43s-0.266,0.742-0.266,1.367v1.221H43.844
			L43.844,201.84z M44.547,201.84h2.671v-1.489c0-0.576-0.111-1.01-0.334-1.301c-0.223-0.291-0.572-0.437-1.047-0.437
			c-0.443,0-0.768,0.149-0.977,0.447s-0.312,0.751-0.312,1.36L44.547,201.84L44.547,201.84z"/>
		<path fill="#111111" d="M47.926,191.703l-2.271,0.889v2.861l2.271,0.879v0.84l-7.168-2.822v-0.698l7.168-2.808V191.703z
			 M44.909,192.851l-2.212,0.83c-0.28,0.107-0.624,0.218-1.03,0.332c0.312,0.072,0.656,0.174,1.03,0.308l2.212,0.84V192.851z"/>
		<path fill="#111111" d="M44.958,189.032h2.969v0.83h-7.139v-1.958c0-0.875,0.167-1.522,0.503-1.941s0.84-0.627,1.514-0.627
			c0.944,0,1.582,0.479,1.914,1.436l3.208-1.938v0.981l-2.969,1.729V189.032z M44.245,189.032v-1.138
			c0-0.586-0.116-1.016-0.349-1.289s-0.582-0.41-1.047-0.41c-0.472,0-0.812,0.139-1.021,0.417c-0.209,0.278-0.312,0.725-0.312,1.34
			v1.079h2.729V189.032z"/>
		<path fill="#111111" d="M45.617,184.252h-0.742v-2.397h0.742V184.252z"/>
		<path fill="#111111" d="M40.788,180.463v-2.017c0-0.947,0.142-1.632,0.425-2.056c0.283-0.424,0.731-0.635,1.343-0.635
			c0.423,0,0.772,0.118,1.047,0.354c0.275,0.236,0.453,0.58,0.535,1.033h0.049c0.186-1.084,0.755-1.626,1.709-1.626
			c0.638,0,1.136,0.216,1.494,0.647s0.537,1.034,0.537,1.809v2.49L40.788,180.463L40.788,180.463z M43.844,179.633v-1.367
			c0-0.586-0.092-1.007-0.276-1.265s-0.494-0.386-0.93-0.386c-0.4,0-0.689,0.143-0.867,0.43s-0.266,0.742-0.266,1.367v1.221H43.844
			L43.844,179.633z M44.547,179.633h2.671v-1.489c0-0.576-0.111-1.01-0.334-1.301c-0.223-0.291-0.572-0.437-1.047-0.437
			c-0.443,0-0.768,0.149-0.977,0.447s-0.312,0.751-0.312,1.36L44.547,179.633L44.547,179.633z"/>
	</g>
	<g>
		<path fill="#111111" d="M217.027,219.77c0.628,0,1.118,0.229,1.47,0.685s0.527,1.073,0.527,1.854c0,0.846-0.109,1.498-0.327,1.953
			h-0.801c0.124-0.293,0.221-0.611,0.293-0.957c0.072-0.345,0.107-0.687,0.107-1.025c0-0.553-0.105-0.969-0.315-1.25
			c-0.21-0.279-0.502-0.42-0.876-0.42c-0.248,0-0.45,0.051-0.608,0.149c-0.158,0.099-0.304,0.265-0.437,0.498
			c-0.133,0.233-0.285,0.587-0.454,1.062c-0.238,0.664-0.519,1.14-0.845,1.424c-0.326,0.283-0.75,0.427-1.274,0.427
			c-0.55,0-0.988-0.207-1.313-0.62c-0.325-0.412-0.488-0.96-0.488-1.641c0-0.709,0.13-1.362,0.391-1.958l0.723,0.259
			c-0.248,0.589-0.371,1.162-0.371,1.719c0,0.439,0.094,0.783,0.283,1.03s0.451,0.371,0.786,0.371c0.248,0,0.45-0.045,0.608-0.138
			c0.158-0.092,0.303-0.244,0.435-0.461c0.132-0.215,0.277-0.547,0.437-0.994c0.267-0.748,0.553-1.264,0.859-1.545
			C216.143,219.911,216.539,219.77,217.027,219.77z"/>
		<path fill="#111111" d="M218.926,218.311h-7.139v-0.83h7.139V218.311z"/>
		<path fill="#111111" d="M215.289,209.823c1.178,0,2.079,0.319,2.703,0.959c0.624,0.639,0.935,1.56,0.935,2.761v1.979h-7.139
			v-2.188c0-1.11,0.308-1.974,0.923-2.588C213.326,210.13,214.185,209.823,215.289,209.823z M215.318,210.702
			c-0.931,0-1.632,0.233-2.104,0.7c-0.472,0.469-0.708,1.162-0.708,2.084v1.205h5.703v-1.01c0-0.99-0.243-1.734-0.73-2.231
			C216.992,210.952,216.271,210.702,215.318,210.702z"/>
		<path fill="#111111" d="M218.926,204.252v3.979h-7.139v-3.979h0.737v3.148h2.3v-2.958h0.732v2.958h2.627v-3.148H218.926z"/>
		<path fill="#111111" d="M211.788,202.67v-2.017c0-0.947,0.142-1.632,0.425-2.056c0.283-0.424,0.731-0.635,1.343-0.635
			c0.423,0,0.772,0.118,1.047,0.354c0.275,0.236,0.453,0.58,0.535,1.033h0.049c0.186-1.084,0.755-1.626,1.709-1.626
			c0.638,0,1.136,0.216,1.494,0.647c0.358,0.431,0.537,1.034,0.537,1.809v2.49L211.788,202.67L211.788,202.67z M214.844,201.84
			v-1.367c0-0.586-0.092-1.007-0.276-1.265s-0.494-0.386-0.93-0.386c-0.4,0-0.689,0.143-0.867,0.43s-0.266,0.742-0.266,1.367v1.221
			H214.844L214.844,201.84z M215.547,201.84h2.671v-1.489c0-0.576-0.111-1.01-0.334-1.301c-0.223-0.291-0.572-0.437-1.047-0.437
			c-0.443,0-0.768,0.149-0.977,0.447s-0.312,0.751-0.312,1.36L215.547,201.84L215.547,201.84z"/>
		<path fill="#111111" d="M218.926,191.703l-2.271,0.889v2.861l2.271,0.879v0.84l-7.168-2.822v-0.698l7.168-2.808V191.703z
			 M215.909,192.851l-2.212,0.83c-0.28,0.107-0.624,0.218-1.03,0.332c0.312,0.072,0.656,0.174,1.03,0.308l2.212,0.84V192.851z"/>
		<path fill="#111111" d="M215.958,189.032h2.969v0.83h-7.139v-1.958c0-0.875,0.167-1.522,0.503-1.941s0.84-0.627,1.514-0.627
			c0.944,0,1.582,0.479,1.914,1.436l3.208-1.938v0.981l-2.969,1.729V189.032L215.958,189.032z M215.245,189.032v-1.138
			c0-0.586-0.116-1.016-0.349-1.289s-0.582-0.41-1.047-0.41c-0.472,0-0.812,0.139-1.021,0.417c-0.209,0.278-0.312,0.725-0.312,1.34
			v1.079h2.729V189.032z"/>
		<path fill="#111111" d="M216.617,184.252h-0.742v-2.397h0.742V184.252z"/>
		<path fill="#111111" d="M218.926,175.976l-2.271,0.889v2.861l2.271,0.879v0.84l-7.168-2.822v-0.698l7.168-2.808V175.976z
			 M215.909,177.123l-2.212,0.83c-0.28,0.107-0.624,0.218-1.03,0.332c0.312,0.072,0.656,0.174,1.03,0.308l2.212,0.84V177.123z"/>
	</g>
	<g>
		<path fill="#111111" d="M249.027,219.77c0.628,0,1.118,0.229,1.47,0.685s0.527,1.073,0.527,1.854c0,0.846-0.109,1.498-0.327,1.953
			h-0.801c0.124-0.293,0.221-0.611,0.293-0.957c0.072-0.345,0.107-0.687,0.107-1.025c0-0.553-0.105-0.969-0.315-1.25
			c-0.21-0.279-0.502-0.42-0.876-0.42c-0.248,0-0.45,0.051-0.608,0.149c-0.158,0.099-0.304,0.265-0.437,0.498
			c-0.133,0.233-0.285,0.587-0.454,1.062c-0.238,0.664-0.519,1.14-0.845,1.424c-0.326,0.283-0.75,0.427-1.274,0.427
			c-0.55,0-0.988-0.207-1.313-0.62c-0.325-0.412-0.488-0.96-0.488-1.641c0-0.709,0.13-1.362,0.391-1.958l0.723,0.259
			c-0.248,0.589-0.371,1.162-0.371,1.719c0,0.439,0.094,0.783,0.283,1.03s0.451,0.371,0.786,0.371c0.248,0,0.45-0.045,0.608-0.138
			c0.158-0.092,0.303-0.244,0.435-0.461c0.132-0.215,0.277-0.547,0.437-0.994c0.267-0.748,0.553-1.264,0.859-1.545
			C248.143,219.911,248.539,219.77,249.027,219.77z"/>
		<path fill="#111111" d="M250.926,218.311h-7.139v-0.83h7.139V218.311z"/>
		<path fill="#111111" d="M247.289,209.823c1.178,0,2.079,0.319,2.703,0.959c0.624,0.639,0.935,1.56,0.935,2.761v1.979h-7.139
			v-2.188c0-1.11,0.308-1.974,0.923-2.588C245.326,210.13,246.185,209.823,247.289,209.823z M247.318,210.702
			c-0.931,0-1.632,0.233-2.104,0.7c-0.472,0.469-0.708,1.162-0.708,2.084v1.205h5.703v-1.01c0-0.99-0.243-1.734-0.73-2.231
			C248.992,210.952,248.271,210.702,247.318,210.702z"/>
		<path fill="#111111" d="M250.926,204.252v3.979h-7.139v-3.979h0.737v3.148h2.3v-2.958h0.732v2.958h2.627v-3.148H250.926z"/>
		<path fill="#111111" d="M243.788,202.67v-2.017c0-0.947,0.142-1.632,0.425-2.056c0.283-0.424,0.731-0.635,1.343-0.635
			c0.423,0,0.772,0.118,1.047,0.354c0.275,0.236,0.453,0.58,0.535,1.033h0.049c0.186-1.084,0.755-1.626,1.709-1.626
			c0.638,0,1.136,0.216,1.494,0.647c0.358,0.431,0.537,1.034,0.537,1.809v2.49L243.788,202.67L243.788,202.67z M246.844,201.84
			v-1.367c0-0.586-0.092-1.007-0.276-1.265s-0.494-0.386-0.93-0.386c-0.4,0-0.689,0.143-0.867,0.43s-0.266,0.742-0.266,1.367v1.221
			H246.844L246.844,201.84z M247.547,201.84h2.671v-1.489c0-0.576-0.111-1.01-0.334-1.301c-0.223-0.291-0.572-0.437-1.047-0.437
			c-0.443,0-0.768,0.149-0.977,0.447s-0.312,0.751-0.312,1.36L247.547,201.84L247.547,201.84z"/>
		<path fill="#111111" d="M250.926,191.703l-2.271,0.889v2.861l2.271,0.879v0.84l-7.168-2.822v-0.698l7.168-2.808V191.703z
			 M247.909,192.851l-2.212,0.83c-0.28,0.107-0.624,0.218-1.03,0.332c0.312,0.072,0.656,0.174,1.03,0.308l2.212,0.84V192.851z"/>
		<path fill="#111111" d="M247.958,189.032h2.969v0.83h-7.139v-1.958c0-0.875,0.167-1.522,0.503-1.941s0.84-0.627,1.514-0.627
			c0.944,0,1.582,0.479,1.914,1.436l3.208-1.938v0.981l-2.969,1.729V189.032L247.958,189.032z M247.245,189.032v-1.138
			c0-0.586-0.116-1.016-0.349-1.289s-0.582-0.41-1.047-0.41c-0.472,0-0.812,0.139-1.021,0.417c-0.209,0.278-0.312,0.725-0.312,1.34
			v1.079h2.729V189.032z"/>
		<path fill="#111111" d="M248.617,184.252h-0.742v-2.397h0.742V184.252z"/>
		<path fill="#111111" d="M243.788,180.463v-2.017c0-0.947,0.142-1.632,0.425-2.056c0.283-0.424,0.731-0.635,1.343-0.635
			c0.423,0,0.772,0.118,1.047,0.354c0.275,0.236,0.453,0.58,0.535,1.033h0.049c0.186-1.084,0.755-1.626,1.709-1.626
			c0.638,0,1.136,0.216,1.494,0.647s0.537,1.034,0.537,1.809v2.49L243.788,180.463L243.788,180.463z M246.844,179.633v-1.367
			c0-0.586-0.092-1.007-0.276-1.265s-0.494-0.386-0.93-0.386c-0.4,0-0.689,0.143-0.867,0.43s-0.266,0.742-0.266,1.367v1.221H246.844
			L246.844,179.633z M247.547,179.633h2.671v-1.489c0-0.576-0.111-1.01-0.334-1.301c-0.223-0.291-0.572-0.437-1.047-0.437
			c-0.443,0-0.768,0.149-0.977,0.447s-0.312,0.751-0.312,1.36L247.547,179.633L247.547,179.633z"/>
	</g>
	<g>
		<path fill="#111111" d="M112.346,15.503h-0.83V9.102h-2.261V8.364h5.352v0.737h-2.261V15.503L112.346,15.503z"/>
		<path fill="#111111" d="M121.877,11.924c0,1.143-0.289,2.041-0.867,2.695c-0.578,0.654-1.381,0.981-2.41,0.981
			c-1.051,0-1.863-0.321-2.434-0.964c-0.571-0.643-0.857-1.55-0.857-2.722c0-1.162,0.287-2.063,0.859-2.703
			c0.572-0.64,1.387-0.959,2.441-0.959c1.025,0,1.826,0.326,2.402,0.977C121.587,9.88,121.877,10.778,121.877,11.924z
			 M116.189,11.924c0,0.967,0.206,1.7,0.618,2.2c0.412,0.5,1.01,0.75,1.794,0.75c0.791,0,1.388-0.249,1.792-0.747
			c0.404-0.498,0.605-1.232,0.605-2.202c0-0.96-0.201-1.688-0.603-2.185c-0.402-0.497-0.997-0.745-1.785-0.745
			c-0.791,0-1.393,0.25-1.804,0.75C116.395,10.245,116.189,10.97,116.189,11.924z"/>
		<path fill="#111111" d="M129.666,11.924c0,1.143-0.289,2.041-0.867,2.695c-0.578,0.654-1.381,0.981-2.41,0.981
			c-1.051,0-1.863-0.321-2.434-0.964c-0.571-0.643-0.857-1.55-0.857-2.722c0-1.162,0.287-2.063,0.859-2.703
			c0.572-0.64,1.387-0.959,2.441-0.959c1.025,0,1.826,0.326,2.402,0.977C129.376,9.88,129.666,10.778,129.666,11.924z
			 M123.977,11.924c0,0.967,0.206,1.7,0.618,2.2c0.412,0.5,1.01,0.75,1.794,0.75c0.791,0,1.388-0.249,1.792-0.747
			c0.404-0.498,0.605-1.232,0.605-2.202c0-0.96-0.201-1.688-0.603-2.185c-0.402-0.497-0.997-0.745-1.785-0.745
			c-0.791,0-1.393,0.25-1.804,0.75C124.183,10.245,123.977,10.97,123.977,11.924z"/>
		<path fill="#111111" d="M131.257,15.503V8.364h0.83v6.387h3.149v0.752H131.257z"/>
		<path fill="#111111" d="M136.448,8.364h2.017c0.947,0,1.632,0.142,2.056,0.425c0.424,0.283,0.635,0.731,0.635,1.343
			c0,0.423-0.118,0.772-0.354,1.047c-0.236,0.275-0.58,0.453-1.033,0.535v0.049c1.084,0.186,1.626,0.755,1.626,1.709
			c0,0.638-0.216,1.136-0.647,1.494c-0.431,0.358-1.034,0.537-1.809,0.537h-2.49L136.448,8.364L136.448,8.364z M137.278,11.421
			h1.367c0.586,0,1.007-0.092,1.265-0.276c0.258-0.184,0.386-0.494,0.386-0.93c0-0.4-0.143-0.689-0.43-0.867
			c-0.287-0.178-0.742-0.266-1.367-0.266h-1.221V11.421L137.278,11.421z M137.278,12.124v2.671h1.489
			c0.576,0,1.01-0.111,1.301-0.334s0.437-0.572,0.437-1.047c0-0.443-0.149-0.768-0.447-0.977c-0.298-0.209-0.751-0.312-1.36-0.312
			L137.278,12.124L137.278,12.124z"/>
		<path fill="#111111" d="M147.415,15.503l-0.889-2.271h-2.861l-0.879,2.271h-0.84l2.822-7.168h0.698l2.808,7.168H147.415z
			 M146.267,12.485l-0.83-2.212c-0.107-0.28-0.218-0.624-0.332-1.03c-0.072,0.312-0.174,0.656-0.308,1.03l-0.84,2.212H146.267z"/>
		<path fill="#111111" d="M150.085,12.534v2.969h-0.83V8.364h1.958c0.875,0,1.522,0.167,1.941,0.503s0.627,0.84,0.627,1.514
			c0,0.944-0.479,1.582-1.436,1.914l1.938,3.208h-0.981l-1.729-2.969H150.085z M150.085,11.821h1.138
			c0.586,0,1.016-0.116,1.289-0.349s0.41-0.582,0.41-1.047c0-0.472-0.139-0.812-0.417-1.021c-0.278-0.209-0.725-0.312-1.34-0.312
			h-1.079L150.085,11.821L150.085,11.821z"/>
	</g>
</g>
</svg>
