<?xml version="1.0" encoding="utf-8"?>
<!DOCTYPE svg PUBLIC "-//W3C//DTD SVG 1.1//EN" "http://www.w3.org/Graphics/SVG/1.1/DTD/svg11.dtd">
<svg version="1.1" id="logo" xmlns="http://www.w3.org/2000/svg" xmlns:xlink="http://www.w3.org/1999/xlink" x="0px" y="0px"
	 width="140px" height="40px" viewBox="0 0 140 40" enable-background="new 0 0 140 40" xml:space="preserve">
<g id="icon">
	<path fill="#222222" d="M33.642,32.935L22.329,21.622l2.265-2.266c2.527,0.97,5.916,0.095,8.43-2.42
		c3.173-3.173,3.747-7.744,1.282-10.209c-2.465-2.465-7.036-1.891-10.209,1.281c-2.558,2.559-3.423,6.021-2.373,8.561L19.5,18.793
		l-2.828,2.828L5.358,32.935l2.829,2.829L19.5,24.45l11.313,11.312L33.642,32.935z"/>
	<path fill="#222222" d="M5.977,5.446c-2.294,2.295-2.294,6.014,0,8.309l7.867,7.867l4.243-4.243L6.065,5.358L5.977,5.446z"/>
</g>
<g id="typo">
	<path fill="#222222" d="M61.625,31.719V26c-1.979,1.354-3.354,2.25-4.125,2.688c-1.792,0.979-3.365,1.469-4.719,1.469
		c-1.625,0-3.021-0.594-4.188-1.781c-1.188-1.229-1.781-2.635-1.781-4.219c0.104-1.666,0.458-3.354,1.062-5.062
		c1.25-3.625,3.323-6.281,6.219-7.969c1.438-0.854,3.094-1.281,4.969-1.281c0.042,0,0.083,0,0.125,0l0.844-0.031
		c0.958,0,1.396,0.375,1.312,1.125c-1.667,0.083-3.229,0.469-4.688,1.156c-1.458,0.688-2.724,1.609-3.797,2.766
		c-1.073,1.156-1.917,2.505-2.531,4.047c-0.615,1.542-0.922,3.115-0.922,4.719c0,1.604,0.417,2.761,1.25,3.469
		c0.833,0.709,1.906,1.062,3.219,1.062c1.125,0,2.688-0.489,4.688-1.469c1.271-0.625,2.219-1.333,2.844-2.125
		c0.312-0.375,0.469-0.771,0.469-1.188V18.75c-0.625,0-2.078,0.24-4.359,0.719c-2.281,0.479-3.599,0.75-3.953,0.812
		c-0.104-0.062-0.229-0.13-0.375-0.203c-0.146-0.073-0.229-0.182-0.25-0.328c-0.042-0.312,0.417-0.792,1.375-1.438
		c0.229-0.125,1.604-0.37,4.125-0.734c2.521-0.364,4.125-0.599,4.812-0.703c0.688-0.104,1.26-0.188,1.719-0.25
		c0.208,0.042,0.469,0.037,0.781-0.016c0.312-0.052,0.604-0.067,0.875-0.047c0.667,0.021,0.979,0.386,0.938,1.094l-2.594,1.062
		c-0.396,1.271-0.594,3.667-0.594,7.188l0.062,4.656c0,0.416,0,0.802,0,1.156c-0.625,0.312-1.229,0.469-1.812,0.469
		C62.042,32.188,61.708,32.031,61.625,31.719z"/>
	<path fill="#222222" d="M68.969,26.031c0-0.333-0.026-0.797-0.078-1.391c-0.052-0.594-0.099-1.244-0.141-1.953
		c-0.042-0.708-0.062-1.427-0.062-2.156c0-0.729,0.062-1.396,0.188-2c0.271-1.354,0.833-2.031,1.688-2.031
		c0.583,0.167,0.974,0.375,1.172,0.625c0.197,0.25,0.297,0.558,0.297,0.922c0,0.365-0.094,0.818-0.281,1.359
		c-0.688,1.812-1.031,3.448-1.031,4.906c0,0.479,0.031,0.99,0.094,1.531c0.333,1.396,1.479,2.094,3.438,2.094
		c1.021,0,1.989-0.177,2.906-0.531c1.75-0.646,2.938-1.406,3.562-2.281C80.906,24.167,81,23.328,81,22.609s-0.026-1.359-0.078-1.922
		c-0.053-0.562-0.115-1.182-0.188-1.859c-0.073-0.677-0.12-1.422-0.141-2.234c0.271-0.125,0.536-0.188,0.797-0.188
		c0.26,0,0.531,0.136,0.812,0.406c0.281,0.271,0.521,0.781,0.719,1.531c0.197,0.75,0.328,1.63,0.391,2.641
		c0.062,1.011,0.099,2.058,0.109,3.141c0.01,1.084,0.016,2.131,0.016,3.141c0,1.011,0.041,1.881,0.125,2.609
		c-0.25,0.229-0.49,0.344-0.719,0.344c-0.834,0-1.448-0.833-1.844-2.5c-0.271,0.229-0.729,0.511-1.375,0.844
		c-1.375,0.75-3,1.25-4.875,1.5c-0.354,0.042-0.75,0.062-1.188,0.062s-0.984-0.083-1.641-0.25c-0.656-0.166-1.276-0.552-1.859-1.156
		C69.479,28.115,69.114,27.219,68.969,26.031z"/>
	<path fill="#222222" d="M96.062,22.125c2.291,0,3.438,0.584,3.438,1.75c0,0.875-0.636,1.896-1.906,3.062
		c-1.896,1.729-4.448,3.115-7.656,4.156c-0.146,0-0.308-0.146-0.484-0.438c-0.178-0.292-0.312-0.516-0.406-0.672
		s-0.162-0.255-0.203-0.297c2.396-0.791,4.364-1.75,5.906-2.875c1.041-0.75,1.562-1.364,1.562-1.844
		c0-0.479-0.615-0.719-1.844-0.719c-1.229,0-3.031,0.292-5.406,0.875c-1.084-0.041-2.021-0.427-2.812-1.156
		c-0.688-0.646-1.031-1.297-1.031-1.953s0.188-1.26,0.562-1.812c0.375-0.552,0.875-1.067,1.5-1.547
		c0.625-0.479,1.354-0.917,2.188-1.312c2.041-0.979,4.156-1.469,6.344-1.469c0.646,0,1.271,0.062,1.875,0.188
		c0.5,0,0.791,0.219,0.875,0.656c0.083,0.438,0.125,1.156,0.125,2.156c-1.229-0.562-2.615-0.844-4.156-0.844
		c-1.917,0-3.5,0.386-4.75,1.156c-1.292,0.75-1.959,1.729-2,2.938c0,0.584,0.427,0.875,1.281,0.875l2.281-0.25
		C93.302,22.334,94.875,22.125,96.062,22.125z"/>
	<path fill="#222222" d="M106.156,27.188l0.062-5c0-0.791-0.073-1.469-0.219-2.031h-4.844L101.094,18h4.688V9.938
		c0.062-0.188,0.188-0.375,0.375-0.562c0.291-0.292,0.536-0.438,0.734-0.438c0.197,0,0.369,0.021,0.516,0.062
		c0.146,0.042,0.302,0.188,0.469,0.438c0.333,1.375,0.5,3.448,0.5,6.219c0,0.688,0.031,1.365,0.094,2.031
		c0.666-0.083,1.333-0.125,2-0.125h1.625c0.396,0,0.76-0.021,1.094-0.062l-0.094,2.25l-4.562-0.125l0.156,10.781
		c-0.375,0.166-0.698,0.25-0.969,0.25C106.677,30.656,106.156,29.5,106.156,27.188z"/>
	<path fill="#222222" d="M115.156,24.25c0-2.458,1.062-4.438,3.188-5.938c1.688-1.188,3.719-1.906,6.094-2.156
		c0.125,0,0.416,0,0.875,0c0.458,0,1.072,0.136,1.844,0.406c1.708,0.583,2.875,1.615,3.5,3.094c0.25,0.583,0.375,1.078,0.375,1.484
		S131.021,21.834,131,22c0,2.604-0.99,4.656-2.969,6.156c-1.834,1.375-4.125,2.062-6.875,2.062c-1.979,0-3.475-0.458-4.484-1.375
		C115.661,27.928,115.156,26.396,115.156,24.25z M117.312,25c0,1.292,0.344,2.167,1.031,2.625c0.521,0.334,1.396,0.5,2.625,0.5
		c1.229,0,2.312-0.094,3.25-0.281s1.771-0.51,2.5-0.969c1.562-1,2.344-2.552,2.344-4.656c0-1.25-0.334-2.271-1-3.062
		c-0.729-0.854-1.688-1.281-2.875-1.281c-0.812,0.146-1.631,0.302-2.453,0.469c-0.823,0.167-1.6,0.49-2.328,0.969
		C118.822,20.333,117.791,22.229,117.312,25z"/>
</g>
</svg>
